<svg id="_x35_0" enable-background="new 0 0 512 512" height="512" viewBox="0 0 512 512" width="512" xmlns="http://www.w3.org/2000/svg"><g><g><circle cx="256" cy="256" fill="#14a36d" r="256"/><circle cx="256" cy="256" fill="#15be79" r="193.254"/></g><g id="Pencil_3_"><g><path d="m145.505 150.584h43.049v164.106h-43.049z" fill="#f39e22" transform="matrix(.866 -.5 .5 .866 -93.942 114.686)"/><path d="m124.468 176.926 69.535 120.438c1.73 2.996 2.078 6.398 1.247 9.499s-2.833 5.873-5.829 7.603l-82.055-142.123c5.984-3.454 13.642-1.41 17.102 4.583z" fill="#c68132"/><path d="m144.648 150.819 82.055 142.123c-5.993 3.46-13.656 1.407-17.111-4.578l-69.535-120.438c-3.46-5.993-1.402-13.647 4.591-17.107z" fill="#f9c744"/></g><g><path d="m241.548 295.884c2.75 4.763 1.123 10.864-3.641 13.614l-39.751 22.95c-2.382 1.375-5.098 1.65-7.557.991-1.243-.333-2.429-.907-3.462-1.696-1.028-.781-1.912-1.771-2.592-2.949-2.755-4.772-1.122-10.864 3.641-13.614l39.751-22.95c2.382-1.375 5.098-1.65 7.557-.991 2.467.653 4.679 2.263 6.054 4.645z" fill="#ebd9ea"/><path d="m241.548 295.884-25.097 14.49c-2.382 1.375-5.093 1.659-7.565.996-2.459-.659-4.674-2.255-6.054-4.645l25.106-14.495c2.382-1.375 5.098-1.65 7.557-.991 2.466.653 4.678 2.263 6.053 4.645z" fill="#fff"/><path d="m236.002 310.598-37.845 21.85c-2.382 1.375-5.098 1.65-7.557.991-1.243-.333-2.429-.907-3.462-1.696l37.845-21.85c2.382-1.375 5.098-1.65 7.557-.991 1.243.333 2.415.903 3.462 1.696z" fill="#c1b7d3"/></g><g><path d="m236.669 310.213 7.375 12.774c3.27 5.664 3.675 12.185 1.661 17.897-.166.512-.356 1.003-.574 1.486-1.785 4.068-4.825 7.624-8.964 10.014-4.347 2.51-9.208 3.33-13.818 2.666-.719-.105-1.444-.24-2.154-.431-.113-.016-.236-.049-.359-.082-5.323-1.419-10.1-4.873-13.075-10.026l-7.375-12.774z" fill="#ee6781"/><path d="m236.669 310.213 7.375 12.774c3.27 5.664 3.675 12.185 1.661 17.897-.53-.098-1.061-.219-1.594-.361-5.314-1.424-10.091-4.878-13.066-10.031l-7.375-12.774z" fill="#f0a6b3"/><path d="m210.775 325.163 7.375 12.774c3.04 5.265 3.611 11.275 2.045 16.682-.113-.016-.236-.049-.359-.082-5.323-1.419-10.1-4.873-13.075-10.026l-7.375-12.774z" fill="#d65171"/></g><path d="m144.644 150.821-37.283 21.525-6.866-47.893 6.114-3.53 30.827 24.233z" fill="#f5b890"/><path d="m137.436 145.156-18.871 10.895c-3.204 1.85-7.257-.129-7.785-3.784l-4.474-31.169.303-.175z" fill="#fbd9a3"/><g><path d="m97.84 103.654 10.615 18.386c1.26 2.182.505 4.974-1.678 6.234-1.091.63-2.333.758-3.462.463-1.134-.304-2.145-1.036-2.775-2.127l-10.615-18.386c-1.14-1.975-.634-4.438 1.071-5.826.188-.155.386-.292.602-.417 2.181-1.26 4.977-.518 6.242 1.673z" fill="#2e3140"/><path d="m97.84 103.654 6.495 11.25c-.188.155-.386.292-.602.417-1.091.63-2.342.763-3.467.454-1.134-.304-2.145-1.036-2.775-2.127l-6.495-11.25c.188-.155.386-.292.602-.417 2.181-1.26 4.977-.518 6.242 1.673z" fill="#334353"/></g></g><g><g><path d="m377.75 180.226-79.07 136.953c-.748 1.295-1.722 2.38-2.859 3.233-3.377 2.566-8.11 3.01-12.018.754-5.203-3.004-6.983-9.669-3.979-14.872l79.07-136.953z" fill="#334353"/><path d="m377.75 180.226-79.07 136.953c-.748 1.295-1.722 2.38-2.859 3.233-.623-.211-1.233-.494-1.829-.838-5.203-3.004-6.994-9.666-3.986-14.877l75.834-131.347z" fill="#3e4e60"/><path d="m327.93 252.765c-3.289-1.899-4.416-6.104-2.517-9.393l23.451-40.619c1.899-3.289 6.104-4.416 9.393-2.517 3.289 1.899 4.416 6.104 2.517 9.393l-23.451 40.619c-1.899 3.289-6.104 4.416-9.393 2.517z" fill="#3f5d77"/></g><g><path d="m413.707 131.579-30.084 52.107c-.103.179-.209.346-.32.52-3.314 5.104-10.084 6.773-15.421 3.692l-10.704-6.18c-5.508-3.18-7.396-10.225-4.216-15.734l30.084-52.107c3.163-5.479 10.143-7.374 15.637-4.272l10.801 6.236c5.516 3.185 7.404 10.23 4.223 15.738z" fill="#2e3140"/><path d="m413.707 131.579-30.084 52.107c-.103.179-.209.346-.32.52-2.453-.186-4.901-.914-7.172-2.225l-1.362-.786c-8.092-4.672-10.863-15.016-6.192-23.108l24.69-42.765c1.38-2.389 3.251-4.307 5.415-5.717l10.801 6.236c5.517 3.185 7.405 10.23 4.224 15.738z" fill="#334353"/><path d="m381.892 168.983c-4.233-2.444-5.684-7.857-3.24-12.091l13.831-23.956c2.444-4.233 7.857-5.684 12.091-3.24 4.233 2.444 5.684 7.857 3.24 12.091l-13.831 23.956c-2.444 4.234-7.858 5.684-12.091 3.24z" fill="#3e4e60"/></g><g><path d="m417.595 155.567-13.302-7.68 6.932-12.007 13.302 7.68c3.316 1.914 4.452 6.154 2.537 9.47-1.914 3.315-6.154 4.451-9.469 2.537z" fill="#2e3140"/><g><g><path d="m406.385 224.746c-1.38 2.39-4.44 3.21-6.83 1.83-12.055-6.96-9.712-19.279-6.894-27.94 1-3.072 2.331-6.437 4.006-10.158 4.588-10.226 11.738-23.13 21.503-40.043 1.38-2.39 4.44-3.21 6.83-1.83s3.21 4.44 1.83 6.83c-4.75 8.227-8.863 15.471-12.33 21.876-6.019 11.086-10.126 19.638-12.329 26.415-3.738 11.514-.872 14.311 2.384 16.191 2.39 1.379 3.21 4.439 1.83 6.829z" fill="#2e3140"/></g><path d="m406.385 224.746c-1.38 2.39-4.44 3.21-6.83 1.83-6.677-3.855-8.941-9.354-9.142-14.966-.172-4.522.986-9.107 2.248-12.974 1-3.072 2.331-6.437 4.006-10.158 4.971-5.79 11.102-10.229 17.833-13.168-6.019 11.086-10.126 19.638-12.329 26.415-.281.866-.522 1.684-.734 2.451-2.571 9.474.104 12 3.118 13.74 2.39 1.38 3.21 4.44 1.83 6.83z" fill="#334353"/><path d="m406.385 224.746c-1.38 2.39-4.44 3.21-6.83 1.83-6.677-3.855-8.941-9.354-9.142-14.966 3.372-2.961 7.088-5.457 11.024-7.434-2.571 9.474.104 12 3.118 13.74 2.39 1.38 3.21 4.44 1.83 6.83z" fill="#3e4e60"/></g></g></g><g id="Ruler_3_"><g><path d="m227.947 333.719h41.224c3.601 0 6.52-2.919 6.52-6.52v-276.101c0-3.601-2.919-6.52-6.52-6.52h-41.224c-3.601 0-6.52 2.919-6.52 6.52v276.101c0 3.601 2.919 6.52 6.52 6.52z" fill="#e9465e"/><path d="m235.002 333.719h-7.055c-3.601 0-6.52-2.919-6.52-6.52v-276.101c0-3.601 2.919-6.52 6.52-6.52h7.055z" fill="#ee6781"/></g><g fill="#f0a6b3"><path d="m221.427 317.256h20.917c1.359 0 2.461 1.102 2.461 2.461 0 1.359-1.102 2.461-2.461 2.461h-20.917z"/><path d="m221.427 251.972h20.917c1.359 0 2.461 1.102 2.461 2.461 0 1.359-1.102 2.461-2.461 2.461h-20.917z"/><path d="m221.427 304.199h12.782c1.359 0 2.461 1.102 2.461 2.461 0 1.359-1.102 2.461-2.461 2.461h-12.782z"/><path d="m221.427 291.142h12.782c1.359 0 2.461 1.102 2.461 2.461 0 1.359-1.102 2.461-2.461 2.461h-12.782z"/><path d="m221.427 278.086h12.782c1.359 0 2.461 1.102 2.461 2.461 0 1.359-1.102 2.461-2.461 2.461h-12.782z"/><path d="m221.427 265.029h12.782c1.359 0 2.461 1.102 2.461 2.461 0 1.359-1.102 2.461-2.461 2.461h-12.782z"/><path d="m221.427 186.688h20.917c1.359 0 2.461 1.102 2.461 2.461 0 1.359-1.102 2.461-2.461 2.461h-20.917z"/><path d="m221.427 238.915h12.782c1.359 0 2.461 1.102 2.461 2.461 0 1.359-1.102 2.461-2.461 2.461h-12.782z"/><path d="m221.427 225.858h12.782c1.359 0 2.461 1.102 2.461 2.461 0 1.359-1.102 2.461-2.461 2.461h-12.782z"/><path d="m221.427 212.802h12.782c1.359 0 2.461 1.102 2.461 2.461 0 1.359-1.102 2.461-2.461 2.461h-12.782z"/><path d="m221.427 199.745h12.782c1.359 0 2.461 1.102 2.461 2.461 0 1.359-1.102 2.461-2.461 2.461h-12.782z"/><path d="m221.427 121.404h20.917c1.359 0 2.461 1.102 2.461 2.461 0 1.359-1.102 2.461-2.461 2.461h-20.917z"/><path d="m221.427 173.631h12.782c1.359 0 2.461 1.102 2.461 2.461 0 1.359-1.102 2.461-2.461 2.461h-12.782z"/><path d="m221.427 160.574h12.782c1.359 0 2.461 1.102 2.461 2.461 0 1.359-1.102 2.461-2.461 2.461h-12.782z"/><path d="m221.427 147.517h12.782c1.359 0 2.461 1.102 2.461 2.461 0 1.359-1.102 2.461-2.461 2.461h-12.782z"/><path d="m221.427 134.461h12.782c1.359 0 2.461 1.102 2.461 2.461 0 1.359-1.102 2.461-2.461 2.461h-12.782z"/><path d="m221.427 56.12h20.917c1.359 0 2.461 1.102 2.461 2.461 0 1.359-1.102 2.461-2.461 2.461h-20.917z"/><path d="m221.427 108.347h12.782c1.359 0 2.461 1.102 2.461 2.461 0 1.359-1.102 2.461-2.461 2.461h-12.782z"/><path d="m221.427 95.29h12.782c1.359 0 2.461 1.102 2.461 2.461 0 1.359-1.102 2.461-2.461 2.461h-12.782z"/><path d="m221.427 82.233h12.782c1.359 0 2.461 1.102 2.461 2.461 0 1.359-1.102 2.461-2.461 2.461h-12.782z"/><path d="m221.427 69.177h12.782c1.359 0 2.461 1.102 2.461 2.461 0 1.359-1.102 2.461-2.461 2.461h-12.782z"/></g></g><g><g><path d="m377.842 275.001c-10.456-11.659-25.71-18.998-42.604-18.998-7.987 0-15.591 1.636-22.493 4.612-5.099 2.178-9.806 5.091-14.019 8.586-.494-12.818-3.921-24.878-9.61-35.551l6.287 1.176-18.559-18.451c-1.606-1.74-3.286-3.409-5.035-5.005l-.114-.114.001.01c-15.109-13.742-35.322-21.97-57.47-21.486-44.131.965-80.093 37.11-80.849 81.244-.005.29-.008.58-.01.87-.083 12.06-9.547 21.941-21.6 22.346-.357.012-.716.027-1.074.046-28.697 1.492-52.11 24.571-53.965 53.247-1.441 22.281 9.903 42.04 27.413 52.662 8.626 5.234 18.751 8.251 29.587 8.251h299.351c22.833 0 42.024-18.095 42.315-40.925.088-6.904-1.508-13.422-4.409-19.174-6.822-13.549-20.858-22.837-37.064-22.837-.686 0-1.364.016-2.043.056-8.913.431-17.084 3.679-23.65 8.873 2.657-6.591 4.133-13.78 4.133-21.321 0-8.013-1.654-15.64-4.636-22.562l6.489.809z" fill="#ebd9ea"/></g><g><path d="m455.329 369.382c-1.244 22.078-20.099 39.064-42.212 39.064h-299.39c-10.836 0-20.961-3.016-29.587-8.251-5.492-9.037-8.541-19.72-8.238-31.141.792-29.824 24.943-54.323 54.754-55.521.378-.015.755-.027 1.132-.035 12.245-.256 21.858-10.22 22.146-22.464.021-.903.057-1.81.108-2.72 2.312-41.557 35.815-75.29 77.357-77.847 19.577-1.205 37.808 4.405 52.533 14.704 12.647 8.817 22.701 21.089 28.813 35.444.037.087.074.175.111.262 5.144 12.168 18.029 18.914 30.974 16.282 3.69-.75 7.509-1.144 11.419-1.144 10.644 0 20.602 2.912 29.132 7.979 14.706 8.729 25.151 23.874 27.496 41.572.327 2.474.495 5.003.495 7.572 0 .167-.001.334-.002.5-.06 6.925 6.11 12.067 12.936 10.894 2.29-.393 4.644-.599 7.046-.599 6.702 0 13.03 1.588 18.631 4.413 3.161 6.268 4.773 13.443 4.346 21.036z" fill="#fff"/></g></g><g><g><path d="m311.013 220.215v193.757c0 9.753-7.9 17.652-17.645 17.652h-93.233c-2.384 0-4.661-.477-6.73-1.331-6.407-2.646-10.915-8.953-10.915-16.322v-193.756c0-7.361 4.507-13.668 10.915-16.314 2.069-.854 4.346-1.331 6.73-1.331h93.233c9.745 0 17.645 7.899 17.645 17.645z" fill="#334353"/><path d="m311.013 220.215v176.858c-52.858-43.605-86.556-109.616-86.556-183.496 0-3.692.085-7.361.254-11.007h68.657c9.745 0 17.645 7.899 17.645 17.645z" fill="#3e4e60"/><path d="m200.134 214.845v204.495c0 4.784-2.731 8.938-6.73 10.953-6.407-2.646-10.915-8.953-10.915-16.322v-193.757c0-7.361 4.507-13.668 10.915-16.314 4 2.015 6.73 6.161 6.73 10.945z" fill="#2e3140"/><g fill="#3f5d77"><circle cx="255.573" cy="416.082" r="11.539"/><path d="m290.019 217.238h-52.823c-4.051 0-7.334-3.284-7.334-7.334 0-4.051 3.284-7.334 7.334-7.334h52.823c4.051 0 7.334 3.284 7.334 7.334 0 4.051-3.283 7.334-7.334 7.334z"/></g></g><g><g><path d="m189.774 248.416v41.49c0 1.336-1.086 2.422-2.422 2.422h-3.252c-3.857 0-6.978-3.12-6.978-6.971v-32.393c0-3.851 3.12-6.978 6.978-6.978h3.252c1.336.001 2.422 1.088 2.422 2.43z" fill="#334353"/><path d="m189.774 248.416v26.278c0 1.343-1.086 2.429-2.422 2.429h-3.252c-3.857 0-6.978-3.127-6.978-6.977v-17.18c0-3.851 3.12-6.978 6.978-6.978h3.252c1.336-.001 2.422 1.086 2.422 2.428z" fill="#3e4e60"/></g><g><path d="m306.226 248.416v18.414c0 1.336 1.086 2.422 2.422 2.422h3.252c3.857 0 6.978-3.12 6.978-6.971v-9.317c0-3.851-3.12-6.978-6.978-6.978h-3.252c-1.336.001-2.422 1.088-2.422 2.43z" fill="#334353"/><path d="m306.226 248.416v10.894c0 1.343 1.086 2.429 2.422 2.429h3.252c3.857 0 6.978-3.127 6.978-6.977v-1.797c0-3.851-3.12-6.978-6.978-6.978h-3.252c-1.336 0-2.422 1.087-2.422 2.429z" fill="#3e4e60"/></g><g><path d="m306.226 283.125v18.414c0 1.336 1.086 2.422 2.422 2.422h3.252c3.857 0 6.978-3.12 6.978-6.971v-9.317c0-3.851-3.12-6.978-6.978-6.978h-3.252c-1.336.001-2.422 1.087-2.422 2.43z" fill="#334353"/><path d="m306.226 283.125v10.894c0 1.343 1.086 2.429 2.422 2.429h3.252c3.857 0 6.978-3.127 6.978-6.977v-1.797c0-3.851-3.12-6.978-6.978-6.978h-3.252c-1.336 0-2.422 1.086-2.422 2.429z" fill="#3e4e60"/></g></g><g><path d="m200.135 224.315h110.878v175.896h-110.878z" fill="#22a8b9"/><path d="m311.013 224.315v172.758c-50.289-41.482-83.225-103.24-86.31-172.758z" fill="#22bce0"/></g><g id="Lightbulb_4_"><g><path d="m300.044 274.345c0 11.651-6.148 20.964-11.834 30.138-.538.872-1.12 1.992-1.734 3.306-1.4 2.983-2.929 6.913-4.372 10.875-3.026 8.345-5.631 16.819-5.631 16.819h-41.789s-7.387-23.947-11.737-31c-.905-1.454-1.82-2.907-2.713-4.382-4.77-7.806-9.131-15.958-9.131-25.756 0-9.874 3.219-19.005 8.679-26.381 8.086-10.972 21.115-18.09 35.791-18.09 3.962 0 7.796.517 11.446 1.497 7.074 1.874 13.449 5.448 18.671 10.251 8.83 8.13 14.354 19.78 14.354 32.723z" fill="#daab42"/><path d="m228.45 274.345c0 9.594-3.036 18.488-8.216 25.756-4.77-7.806-9.131-15.958-9.131-25.756 0-9.874 3.219-19.005 8.679-26.381 5.449 7.376 8.668 16.507 8.668 26.381z" fill="#c4983d"/><path d="m300.044 274.345c0 11.651-6.148 20.964-11.834 30.138-.538.872-1.12 1.992-1.734 3.306-1.4 2.983-2.929 6.913-4.372 10.875-1.195.097-2.412.151-3.629.151-24.561 0-44.47-19.909-44.47-44.47 0-20.598 14.009-37.924 33.013-42.974 7.074 1.874 13.449 5.448 18.671 10.251 8.831 8.13 14.355 19.78 14.355 32.723z" fill="#f9c744"/><path d="m300.044 274.345c0 11.651-6.148 20.964-11.834 30.138-.538.872-1.12 1.992-1.734 3.306-7.268-6.385-12.447-15.107-14.342-24.992-.528-2.735-.808-5.567-.808-8.453 0-10.132 3.392-19.479 9.099-26.951 1.583-2.078 3.349-4.006 5.265-5.771 8.83 8.13 14.354 19.78 14.354 32.723z" fill="#f8d07a"/><circle cx="274.783" cy="264.749" fill="#fbd9a3" r="18.247"/><path d="m300.044 274.345c0 11.651-6.148 20.964-11.834 30.138-.538.872-1.12 1.992-1.734 3.306-1.4 2.983-2.929 6.913-4.372 10.875-3.026 8.345-5.631 16.819-5.631 16.819h-41.789s-7.387-23.947-11.737-31c-.905-1.454-1.82-2.907-2.713-4.382-4.77-7.806-9.131-15.958-9.131-25.756 0-9.874 3.219-19.005 8.679-26.381 8.086-10.972 21.115-18.09 35.791-18.09 3.962 0 7.796.517 11.446 1.497 7.074 1.874 13.449 5.448 18.671 10.251 8.83 8.13 14.354 19.78 14.354 32.723z" fill="none"/></g><g><path d="m271.327 372.577v6.321c0 6.557-4.016 12.189-9.712 14.558-1.863.764-3.898 1.195-6.041 1.195-8.689 0-15.742-7.053-15.742-15.753v-6.321z" fill="#2e3140"/><path d="m271.327 372.577v6.321c0 6.557-4.016 12.189-9.712 14.558-5.707-2.369-9.723-7.99-9.723-14.558v-6.321z" fill="#3e4e60"/><path d="m271.327 372.577v6.321c0 6.557-4.016 12.189-9.712 14.558-1.863.764-3.898 1.195-6.041 1.195-8.689 0-15.742-7.053-15.742-15.753v-6.321z" fill="none"/></g><g><path d="m248.599 304.672h13.96v30.812h-13.96z" fill="#bf5e39"/><path d="m255.579 304.672h6.98v30.812h-6.98z" fill="#dd5e26"/></g><g><path d="m276.205 295.977c0 .861-.118 1.691-.355 2.466-1.066 3.607-4.404 6.234-8.345 6.234h-23.85c-2.401 0-4.576-.98-6.148-2.552s-2.552-3.747-2.552-6.148c0-4.802 3.898-8.7 8.7-8.7h23.85c2.401 0 4.576.98 6.148 2.552 1.583 1.572 2.552 3.747 2.552 6.148z" fill="#bf5e39"/><path d="m276.205 295.977c0 .861-.118 1.691-.355 2.466h-22.59c-2.401 0-4.576-.969-6.148-2.552-1.572-1.572-2.552-3.747-2.552-6.148 0-.861.129-1.69.355-2.466h22.59c2.401 0 4.576.98 6.148 2.552 1.583 1.572 2.552 3.747 2.552 6.148z" fill="#dd5e26"/><path d="m273.653 289.829c1.583 1.572 2.552 3.747 2.552 6.148 0 .861-.118 1.691-.355 2.466h-8.086c-2.401 0-4.576-.969-6.148-2.552-1.572-1.572-2.541-3.747-2.541-6.148 0-.861.118-1.69.355-2.466h8.076c2.4 0 4.575.979 6.147 2.552z" fill="#ea792e"/><path d="m276.205 295.977c0 .861-.118 1.691-.355 2.466-1.066 3.607-4.404 6.234-8.345 6.234h-23.85c-2.401 0-4.576-.98-6.148-2.552s-2.552-3.747-2.552-6.148c0-4.802 3.898-8.7 8.7-8.7h23.85c2.401 0 4.576.98 6.148 2.552 1.583 1.572 2.552 3.747 2.552 6.148z" fill="none"/></g><g><path d="m288.663 347.123c0 .205-.011.398-.022.581-.398 5.901-6.859 7.02-11.607 11.047-.969.829-.829 5.007-.829 5.007 0 11.392-9.239 20.631-20.631 20.631-6.859 0-12.932-3.349-16.679-8.506-.754-1.034-1.411-2.143-1.97-3.316-.775-1.637-1.335-3.403-1.658-5.244-.205-1.152-.312-2.347-.312-3.564 0 0 .14-4.178-.829-5.007-4.899-4.156-11.629-5.211-11.629-11.629 0-6.428 5.201-11.64 11.629-11.64h42.909c6.427 0 11.628 5.212 11.628 11.64z" fill="#c1b7d3"/><path d="m288.663 347.123c0 .21-.007.406-.022.581-.398 5.901-6.859 7.02-11.607 11.047-.969.829-.829 5.007-.829 5.007 0 11.392-9.239 20.631-20.631 20.631-6.859 0-12.932-3.349-16.679-8.506-.754-1.034-1.411-2.143-1.97-3.316-.775-1.637-1.335-3.403-1.658-5.244-.205-1.152-.312-2.347-.312-3.564 0 0 .14-4.178-.829-5.007-4.899-4.156-11.629-5.211-11.629-11.629z" fill="#aea7b9"/><path d="m262.562 347.123s-3.456 24.873-25.638 25.444c-1.26-2.67-1.97-5.653-1.97-8.808 0 0 .14-4.178-.829-5.007-4.899-4.156-11.629-5.211-11.629-11.629z" fill="#9f90ae"/><path d="m252.516 341.298c0 3.22-2.606 5.825-5.814 5.825h-24.206c0-6.428 5.201-11.64 11.629-11.64h12.577c3.208 0 5.814 2.606 5.814 5.815z" fill="#aea7b9"/><path d="m268.204 371.608c0 2.358-1.917 4.275-4.285 4.275h-25.024c-.754-1.034-1.411-2.143-1.97-3.316-.775-1.637-1.335-3.403-1.658-5.244h28.653c2.368 0 4.284 1.917 4.284 4.285z" fill="#c1b7d3"/><g fill="#ebd9ea"><path d="m259.657 375.885h-2.731c-2.363 0-4.279-1.916-4.279-4.279 0-2.363 1.916-4.279 4.279-4.279h2.731c2.363 0 4.279 1.916 4.279 4.279 0 2.364-1.916 4.279-4.279 4.279z"/><path d="m274.872 344.041h-12.989c-2.363 0-4.279-1.916-4.279-4.279 0-2.363 1.916-4.279 4.279-4.279h12.989c2.363 0 4.279 1.916 4.279 4.279 0 2.364-1.916 4.279-4.279 4.279z"/></g></g></g></g></g></svg>