<?xml version="1.0" standalone="no"?>
<!DOCTYPE svg PUBLIC "-//W3C//DTD SVG 20010904//EN"
 "http://www.w3.org/TR/2001/REC-SVG-20010904/DTD/svg10.dtd">
<svg version="1.0" xmlns="http://www.w3.org/2000/svg"
 width="800.000000pt" height="400.000000pt" viewBox="0 0 800.000000 400.000000"
 preserveAspectRatio="xMidYMid meet">

<g transform="translate(0.000000,400.000000) scale(0.100000,-0.100000)"
fill="#000000" stroke="none">
<path d="M0 2000 l0 -2000 1978 0 1979 0 16 38 c9 20 39 95 66 167 38 101 53
130 66 128 12 -1 14 2 6 10 -16 16 -13 27 6 20 14 -5 13 -3 -3 13 -12 13 -22
16 -26 10 -4 -6 -8 2 -8 19 0 22 3 26 12 17 8 -8 16 -6 30 10 10 12 18 25 18
30 0 5 6 6 13 2 9 -6 9 -5 0 7 -8 11 -7 23 7 54 27 61 60 147 60 156 0 4 -20
9 -44 11 l-45 3 61 105 c33 58 62 107 64 109 2 3 10 -3 17 -13 12 -16 14 -14
26 26 7 23 19 59 27 78 7 19 41 107 74 195 34 88 65 164 71 169 12 13 12 56
-2 56 -5 0 -7 5 -4 10 4 6 -7 10 -24 10 -18 0 -31 5 -31 12 0 9 -3 8 -12 -1
-10 -11 -10 -14 -1 -18 18 -7 16 -43 -2 -43 -8 0 -15 -4 -15 -8 0 -13 -62 -13
-77 0 -9 7 -13 7 -13 -2 0 -10 -3 -10 -15 0 -9 8 -15 8 -15 2 0 -14 -132 -11
-143 3 -6 6 -10 6 -14 -2 -10 -25 -23 -12 -23 22 0 27 4 35 19 35 14 0 18 7
17 32 0 27 4 34 22 36 12 2 22 -1 22 -7 0 -6 -5 -11 -12 -11 -6 0 -8 -3 -5 -7
4 -3 15 1 24 9 26 23 67 17 71 -10 4 -29 22 -28 22 1 0 17 5 23 20 22 11 -1
23 -4 26 -8 4 -4 13 -2 21 4 10 9 13 4 13 -26 l0 -38 -22 19 c-12 10 -18 14
-15 7 4 -6 3 -14 -3 -18 -6 -4 -11 6 -11 22 -2 24 -2 25 -6 5 -5 -27 -28 -39
-46 -23 -10 8 -17 7 -25 -1 -9 -9 -18 -8 -38 1 -25 11 -30 10 -50 -13 -18 -18
-20 -25 -9 -29 7 -3 16 1 19 9 8 21 22 17 33 -8 l10 -23 7 23 c4 12 13 22 20
22 7 0 18 -10 24 -22 l11 -23 0 23 c1 25 11 28 29 10 9 -9 12 -9 12 0 0 6 6 9
14 6 8 -3 17 -1 20 5 10 16 36 1 37 -23 1 -20 2 -20 6 -1 3 11 10 23 17 27 7
5 5 8 -6 8 -14 0 -18 8 -18 35 0 28 4 35 19 35 11 0 23 -5 26 -10 4 -7 11 -7
18 -2 15 12 79 12 93 0 7 -5 14 -3 17 6 6 15 -19 30 -34 20 -6 -3 -16 0 -24 6
-11 10 -15 10 -15 1 0 -7 -4 -9 -10 -6 -13 8 -13 65 0 65 6 0 10 -6 10 -12 0
-10 2 -10 8 -1 5 8 24 11 51 9 27 -3 44 0 46 7 2 7 36 98 76 202 58 153 72
200 70 238 -2 48 13 140 31 187 7 20 11 22 18 10 7 -11 10 -8 10 13 0 15 5 27
10 27 6 0 10 12 10 28 1 25 2 25 20 -13 15 -32 19 -35 20 -17 0 16 5 22 17 20
25 -4 27 43 2 49 -18 5 -18 6 -1 28 10 12 26 47 37 78 l18 55 -74 85 -74 85
-1060 4 -1060 3 0 35 0 35 1025 5 c564 3 1021 7 1015 10 -18 9 -185 197 -185
209 0 6 -11 11 -25 11 -15 0 -39 7 -55 15 -29 15 -34 26 -44 88 -5 32 -23 51
-51 55 -11 2 -32 6 -47 9 -31 6 -40 -14 -10 -23 54 -17 82 -35 88 -59 15 -59
-56 -100 -130 -75 -46 15 -59 32 -43 54 11 16 15 16 50 1 36 -15 57 -13 57 4
0 5 -21 16 -46 26 -46 18 -65 43 -56 77 6 26 41 48 74 48 l28 0 -36 35 c-29
28 -39 33 -54 25 -28 -15 -77 -12 -115 6 -31 14 -33 18 -23 40 13 28 16 28 42
9 25 -19 66 -19 66 -1 0 8 -12 17 -27 21 -51 12 -73 33 -73 69 0 26 -10 44
-46 82 -25 27 -52 63 -59 79 l-14 30 -1 -37 c0 -35 -2 -38 -30 -38 l-30 0 0
64 c0 44 -5 67 -15 76 -13 11 -15 3 -15 -64 l0 -76 -36 0 -35 0 2 115 2 116
-69 78 c-38 43 -86 99 -107 125 l-38 46 -1779 0 -1780 0 0 -2000z m3010 1710
c24 -24 24 -30 6 -56 -12 -15 -12 -22 -2 -34 24 -28 25 -48 5 -74 -19 -24 -26
-26 -101 -26 l-81 0 7 77 c3 42 6 89 6 105 l0 28 70 0 c57 0 74 -4 90 -20z
m101 -17 c0 -21 3 -56 7 -78 7 -36 10 -40 37 -40 l30 0 5 75 c5 73 6 75 33 78
l27 3 0 -80 c0 -69 -3 -83 -23 -107 -33 -38 -106 -39 -143 -3 -25 25 -30 52
-26 142 2 43 4 47 27 47 22 0 25 -4 26 -37z m230 0 c1 -21 2 -67 2 -103 l2
-65 -33 -3 -33 -3 2 87 c3 113 6 124 35 124 21 0 24 -5 25 -37z m99 -43 l0
-80 45 0 c41 0 45 -2 45 -25 0 -24 -2 -25 -75 -25 l-75 0 0 105 0 105 30 0 30
0 0 -80z m286 47 c26 -30 33 -92 14 -128 -18 -32 -64 -49 -135 -49 l-65 0 0
68 c0 37 3 84 7 106 l6 38 75 -4 c66 -3 77 -6 98 -31z m-1007 -251 c24 -22 27
-49 7 -65 -13 -11 -12 -15 5 -32 26 -26 24 -54 -7 -78 -21 -17 -41 -21 -95
-21 l-69 0 0 111 0 111 69 -4 c50 -2 75 -9 90 -22z m221 -1 c0 -24 -3 -25 -55
-25 -48 0 -55 -2 -55 -20 0 -17 7 -20 50 -20 47 0 50 -2 50 -25 0 -23 -3 -25
-50 -25 -37 0 -50 -4 -50 -15 0 -10 15 -15 58 -17 49 -3 57 -6 57 -23 0 -18
-8 -20 -87 -23 l-88 -3 0 111 0 110 85 0 c84 0 85 0 85 -25z m166 15 c19 -8
30 -8 38 0 5 5 50 10 99 10 l88 0 -3 -27 c-3 -24 -7 -28 -30 -25 l-28 3 0 -86
0 -86 -31 3 -31 3 -2 80 c-1 80 -1 80 -28 80 -14 0 -30 3 -34 7 -4 4 -12 1
-18 -7 -9 -13 -17 -14 -44 -4 -24 8 -37 8 -44 1 -8 -8 -3 -14 18 -21 63 -22
79 -36 82 -68 5 -46 -26 -73 -80 -73 -70 0 -113 32 -90 68 7 10 15 9 40 -4 33
-16 62 -16 65 0 1 5 -16 15 -37 22 -21 8 -45 19 -52 25 -15 12 -18 57 -6 75
21 32 79 42 128 24z m374 -66 l24 -75 27 73 c24 65 29 73 53 73 14 0 27 -2 29
-5 1 -3 -16 -51 -37 -108 -38 -99 -40 -102 -70 -102 -30 0 -32 4 -72 105 -23
57 -39 106 -36 109 3 4 17 6 32 6 24 0 28 -6 50 -76z m320 51 c0 -24 -3 -25
-55 -25 -48 0 -55 -2 -55 -20 0 -17 7 -20 50 -20 47 0 50 -2 50 -25 0 -23 -3
-25 -50 -25 -38 0 -50 -4 -50 -15 0 -12 13 -15 60 -15 57 0 60 -1 60 -25 0
-25 -1 -25 -90 -25 l-90 0 0 110 0 110 85 0 c84 0 85 0 85 -25z m202 -5 c22
-27 23 -68 3 -98 -14 -19 -14 -24 0 -51 20 -40 20 -41 -15 -41 -23 0 -33 7
-45 30 -21 40 -58 42 -53 3 3 -25 -1 -28 -29 -31 l-33 -3 0 112 0 112 77 -5
c64 -4 80 -9 95 -28z m-1162 -247 c0 -5 9 -23 21 -42 l21 -34 24 41 c21 35 31
42 55 42 l30 0 -40 -74 c-27 -49 -41 -86 -41 -110 0 -35 -2 -37 -27 -34 -24 3
-28 8 -31 41 -2 20 -19 65 -38 98 -19 34 -34 65 -34 70 0 5 14 9 30 9 17 0 30
-3 30 -7z m339 -19 c101 -85 -10 -240 -129 -179 -40 20 -60 53 -60 95 1 70 43
109 117 110 30 0 50 -7 72 -26z m121 -49 c0 -62 3 -76 19 -84 35 -19 53 7 55
85 l1 69 33 3 32 3 0 -64 c0 -35 -5 -78 -11 -96 -12 -35 -53 -61 -94 -61 -35
0 -82 25 -89 47 -4 15 -9 139 -7 166 1 4 15 7 31 7 l30 0 0 -75z m313 64 c12
-7 25 -17 29 -23 14 -20 8 -79 -8 -97 -15 -17 -14 -20 5 -48 28 -38 27 -41
-13 -41 -28 0 -36 5 -46 30 -16 39 -47 41 -52 3 -2 -23 -8 -28 -32 -28 l-29 0
1 105 c1 58 2 106 2 108 1 8 125 0 143 -9z m301 -10 c32 -25 36 -79 7 -108
-18 -18 -18 -19 0 -42 27 -35 24 -49 -11 -49 -23 0 -33 7 -45 30 -9 18 -23 30
-35 30 -16 0 -20 -7 -20 -30 0 -27 -3 -30 -30 -30 l-30 0 0 110 0 110 69 0
c54 0 74 -4 95 -21z m226 -4 c0 -24 -3 -25 -55 -25 -42 0 -55 -3 -55 -15 0
-11 12 -15 50 -15 47 0 50 -2 50 -25 0 -23 -3 -25 -50 -25 -43 0 -50 -3 -50
-20 0 -18 7 -20 55 -20 52 0 55 -1 55 -25 l0 -26 -87 3 c-49 2 -87 6 -85 11 1
4 2 52 2 107 l0 100 85 0 c84 0 85 0 85 -25z m-1332 -764 c31 -16 79 -52 105
-80 51 -54 98 -142 79 -149 -7 -2 -6 -12 3 -29 21 -40 7 -48 -26 -17 -16 15
-29 23 -29 16 0 -6 -12 -19 -26 -28 -20 -14 -27 -15 -33 -5 -6 10 -10 8 -15
-4 -5 -14 -9 -15 -21 -5 -12 10 -15 10 -15 0 0 -14 -8 -11 -9 3 0 4 -8 21 -16
37 -15 30 -13 50 6 50 5 0 9 -7 9 -15 0 -19 27 -19 46 0 22 21 8 35 -34 35
-41 0 -56 -7 -66 -30 -3 -8 -4 2 -1 22 3 20 1 39 -4 43 -6 3 -19 26 -30 51
-16 36 -29 49 -66 65 -58 25 -83 20 -137 -29 -45 -40 -77 -101 -78 -144 0 -16
-6 -29 -12 -29 -7 -1 -20 -2 -28 -3 -8 -1 -23 2 -32 7 -12 5 -18 4 -18 -4 0
-6 -7 -8 -16 -5 -11 4 -20 -5 -31 -34 -9 -22 -20 -40 -26 -40 -5 0 -6 -11 -3
-25 7 -26 6 -26 -19 -9 -28 18 -34 63 -12 86 8 7 12 22 11 33 -5 29 42 114 88
162 115 119 306 150 456 74z m1608 9 c178 -84 272 -280 219 -458 -12 -38 -19
-50 -30 -45 -10 3 -20 -6 -30 -31 -17 -41 -31 -46 -40 -13 -3 12 -17 47 -30
77 -13 31 -35 97 -49 147 -28 105 -77 205 -115 234 -14 10 -31 23 -37 28 -24
20 -52 22 -63 4 -7 -12 -10 -13 -11 -4 0 8 -7 11 -20 8 -13 -3 -18 -1 -13 6 4
7 6 26 4 44 -2 26 1 32 21 35 47 6 147 -10 194 -32z m-243 -25 c-1 -22 -6 -52
-12 -68 l-11 -27 30 15 c37 19 64 19 80 0 7 -8 18 -15 24 -15 13 0 70 -83 86
-123 26 -71 6 -150 -53 -214 -11 -13 -16 -23 -10 -23 6 0 9 -8 6 -19 -3 -10 0
-22 5 -25 7 -4 7 -18 1 -38 -10 -35 -3 -72 11 -63 14 9 30 -30 30 -73 0 -34
-3 -40 -25 -44 -28 -6 -39 5 -49 47 -7 30 -68 192 -87 230 -16 33 -47 49 -66
33 -9 -7 -21 -13 -27 -13 -6 0 -44 -13 -83 -30 -69 -28 -73 -32 -73 -62 0 -17
5 -35 10 -38 12 -8 13 -25 1 -25 -5 0 -14 12 -20 28 -6 15 -21 46 -35 70 -47
84 -43 219 11 326 33 65 111 141 175 171 70 33 82 30 81 -20z m-993 -69 c0
-16 -18 -31 -27 -22 -8 8 5 36 17 36 5 0 10 -6 10 -14z m240 -1 c7 -8 16 -13
20 -10 5 3 13 -8 18 -25 9 -24 7 -34 -11 -57 -12 -15 -25 -31 -30 -34 -11 -8
-47 1 -47 11 0 14 -30 20 -55 10 -35 -13 -31 -30 8 -30 l32 -1 -27 -15 c-16
-8 -28 -19 -28 -24 0 -12 46 -24 65 -16 8 3 15 1 15 -4 0 -12 -42 -23 -67 -18
-12 2 -20 15 -24 43 -3 22 -7 34 -8 28 0 -7 -5 -13 -10 -13 -6 0 -3 12 5 28 7
15 14 35 14 45 0 29 19 57 53 77 38 24 60 25 77 5z m251 -50 c13 4 32 15 42
24 18 15 20 14 43 -14 13 -17 31 -50 39 -74 19 -55 12 -61 -67 -61 l-56 0 1
-61 c2 -58 0 -62 -35 -95 -38 -34 -78 -45 -78 -21 0 39 14 87 25 87 7 0 17 12
23 28 10 29 5 92 -8 92 -4 0 -7 12 -7 28 0 15 -3 52 -6 82 l-7 55 34 -39 c27
-32 37 -37 57 -31z m-1059 25 c14 -11 28 -29 31 -40 4 -17 0 -20 -23 -20 -39
0 -30 -33 13 -46 26 -7 33 -15 35 -41 5 -53 -54 -89 -112 -67 -22 8 -20 20 5
45 20 20 20 23 5 31 -12 7 -14 14 -6 28 14 26 12 51 -4 64 -20 15 -9 66 14 66
9 0 29 -9 42 -20z m111 -24 c3 -8 3 -16 0 -19 -7 -8 -32 16 -26 26 7 11 20 8
26 -7z m-178 -76 c3 -6 -1 -13 -10 -16 -19 -8 -30 0 -20 15 8 14 22 14 30 1z
m879 -66 c4 -29 2 -52 -5 -60 -9 -11 -7 -15 6 -20 13 -5 14 -9 3 -15 -10 -7
-9 -9 5 -9 26 0 17 -32 -13 -47 l-25 -12 33 -1 c25 0 32 -4 32 -19 0 -32 -49
-33 -97 -3 -45 29 -67 64 -78 123 l-7 36 46 -7 c52 -8 62 -1 72 48 9 45 20 39
28 -14z m-647 14 c-3 -8 -6 -5 -6 6 -1 11 2 17 5 13 3 -3 4 -12 1 -19z m280 0
c-3 -8 -6 -5 -6 6 -1 11 2 17 5 13 3 -3 4 -12 1 -19z m461 -16 c2 -7 -7 -12
-22 -12 -27 0 -35 15 -13 23 17 7 30 3 35 -11z m-258 -35 c0 -13 5 -28 11 -34
6 -6 9 -19 7 -29 -3 -16 -7 -13 -21 13 -19 35 -22 73 -7 73 6 0 10 -10 10 -23z
m265 4 c3 -5 1 -12 -4 -15 -13 -8 -42 4 -35 15 7 12 31 12 39 0z m-580 -11 c3
-5 -1 -10 -9 -10 -9 0 -16 5 -16 10 0 6 4 10 9 10 6 0 13 -4 16 -10z m-105
-59 c0 -21 -16 -2 -25 29 -7 24 -7 24 9 5 8 -11 16 -27 16 -34z m207 17 c-3
-7 -5 -2 -5 12 0 14 2 19 5 13 2 -7 2 -19 0 -25z m-431 0 c-13 -62 -15 -89 -8
-84 4 3 14 1 21 -3 20 -13 -44 -34 -81 -27 -36 7 -98 41 -98 54 0 4 24 16 53
26 28 10 63 27 76 37 31 25 42 24 37 -3z m910 -24 c-4 -9 -9 -15 -11 -12 -3 3
-3 13 1 22 4 9 9 15 11 12 3 -3 3 -13 -1 -22z m-1248 -12 c2 -7 -3 -12 -12
-12 -9 0 -16 7 -16 16 0 17 22 14 28 -4z m26 -78 c-12 -27 -18 -34 -24 -24 -5
8 -6 18 -4 22 3 4 0 8 -5 8 -6 0 -11 11 -11 25 0 29 16 34 23 8 3 -13 5 -12 6
5 1 21 3 22 16 9 13 -14 13 -20 -1 -53z m116 16 c0 -16 -4 -32 -10 -35 -6 -4
-9 10 -8 34 1 45 18 46 18 1z m589 13 c-21 -66 -24 -69 -53 -64 -5 1 -6 -5 -3
-13 4 -10 1 -13 -9 -9 -7 3 -14 9 -14 13 0 4 -17 24 -37 43 -44 43 -34 49 94
55 30 2 31 1 22 -25z m-569 -50 c-11 -17 -11 -17 -6 0 3 10 7 26 7 35 1 15 2
15 6 0 2 -10 -1 -25 -7 -35z m914 -8 c3 -8 14 -15 24 -15 10 0 27 -6 38 -14
15 -12 17 -17 7 -27 -19 -19 -16 -29 7 -29 23 0 25 -12 9 -42 -9 -16 -8 -19 3
-16 7 2 19 17 26 31 15 31 27 34 36 11 7 -17 -5 -43 -42 -91 -29 -39 -38 -40
-63 -10 l-18 22 -1 -22 c0 -23 -14 -28 -44 -17 -12 5 -13 9 -3 25 6 10 17 19
24 19 9 0 10 7 2 27 -5 14 -12 51 -15 82 -3 31 -7 62 -9 69 -6 17 12 15 19 -3z
m-990 -11 c3 -8 2 -12 -4 -9 -6 3 -10 10 -10 16 0 14 7 11 14 -7z m1317 -66
c22 -12 39 -25 39 -29 0 -8 -65 -59 -97 -76 -13 -6 -23 -11 -23 -10 0 1 9 26
21 56 11 30 18 60 15 67 -7 19 0 18 45 -8z m-376 -5 c-5 -10 -13 -39 -18 -65
-6 -27 -14 -48 -17 -48 -11 0 -90 60 -89 68 0 9 99 61 118 61 9 1 11 -5 6 -16z
m-369 -8 c-11 -8 -25 -15 -30 -15 -6 0 -2 7 8 15 11 8 25 15 30 15 6 0 2 -7
-8 -15z m1624 -18 c0 -2 -10 -12 -22 -23 l-23 -19 19 23 c18 21 26 27 26 19z
m-95 -77 c-16 -11 -34 -20 -40 -20 -12 0 46 38 60 39 6 1 -3 -8 -20 -19z
m-375 -16 c0 -2 -9 0 -20 6 -11 6 -20 13 -20 16 0 2 9 0 20 -6 11 -6 20 -13
20 -16z m-500 -8 c0 -2 -7 -7 -16 -10 -8 -3 -12 -2 -9 4 6 10 25 14 25 6z
m597 -22 c-3 -3 -12 -4 -19 -1 -8 3 -5 6 6 6 11 1 17 -2 13 -5z m-1727 -98 c0
-6 5 -5 12 2 14 14 78 16 78 2 0 -5 -5 -10 -11 -10 -6 0 -9 -7 -6 -15 4 -8 2
-17 -3 -20 -6 -4 -10 3 -10 13 0 22 -26 37 -36 21 -3 -5 -1 -15 5 -22 8 -10
-2 -13 -45 -15 -51 -2 -54 -1 -54 21 0 13 3 27 7 30 10 10 63 4 63 -7z m138
-11 c15 -34 17 -32 -18 -32 -16 0 -30 2 -30 3 0 10 24 54 30 54 4 0 12 -11 18
-25z m102 8 c0 -7 5 -13 10 -13 6 0 10 7 10 15 0 27 20 15 21 -12 l1 -28 10
28 c9 25 28 38 28 19 0 -5 7 -17 15 -28 15 -19 16 -19 14 1 -2 35 1 39 16 19
13 -17 14 -17 15 -1 0 30 20 18 20 -13 0 -16 -4 -30 -10 -30 -5 0 -10 5 -10
11 0 8 -4 8 -12 1 -17 -13 -101 -12 -110 2 -6 8 -10 8 -15 1 -5 -6 -22 -12
-40 -13 -29 -2 -32 0 -29 25 2 16 4 29 5 30 0 1 15 1 31 1 18 -1 30 -6 30 -15z
m520 -5 c0 -10 5 -18 10 -18 6 0 10 9 10 20 0 23 29 27 48 8 7 -7 12 -8 12 -2
0 6 36 11 90 12 55 2 90 -2 90 -8 0 -5 -4 -10 -10 -10 -5 0 -10 -11 -10 -25 0
-14 -4 -25 -10 -25 -5 0 -10 11 -10 25 0 14 -5 25 -11 25 -5 0 -9 -10 -7 -22
3 -22 -1 -23 -60 -23 -47 -1 -66 3 -72 15 -8 13 -9 12 -10 -3 0 -12 -4 -16
-12 -10 -7 4 -21 6 -31 5 -10 -2 -24 1 -30 7 -8 6 -18 6 -27 1 -24 -16 -30
-12 -30 20 0 27 3 29 35 28 27 -1 35 -6 35 -20z m324 -2 c-6 -19 -5 -19 14 4
18 21 24 23 41 13 15 -10 21 -10 25 0 3 9 7 8 15 -3 7 -9 14 -11 19 -5 14 20
42 17 42 -5 0 -26 16 -26 23 0 9 33 29 23 25 -12 -3 -31 -5 -33 -43 -33 -24 0
-45 6 -52 15 -9 11 -12 12 -13 2 0 -8 -6 -12 -12 -9 -7 2 -21 0 -31 -5 -12 -6
-23 -5 -33 3 -11 9 -14 9 -14 -1 0 -10 -3 -10 -15 0 -11 10 -15 10 -15 0 0 -6
-5 -10 -12 -8 -9 3 -15 40 -9 62 1 2 12 4 26 4 21 0 24 -4 19 -22z m486 10 c0
-6 4 -5 9 3 13 20 30 5 25 -22 -3 -17 -1 -16 8 6 7 15 17 27 24 27 7 0 17 -12
22 -27 l10 -28 1 28 c1 25 21 41 21 16 0 -8 4 -8 13 -2 16 14 100 13 109 -1 5
-8 8 -7 8 2 0 22 20 13 21 -10 l0 -23 11 23 c15 30 34 28 46 -5 l10 -28 1 28
c1 33 18 36 23 5 2 -13 9 -22 15 -21 7 2 10 -4 7 -12 -6 -16 -61 -18 -70 -3
-3 5 -14 4 -24 -2 -14 -7 -23 -6 -33 5 -12 11 -16 12 -20 2 -4 -10 -47 -15
-67 -7 -3 1 -13 2 -22 1 -10 -1 -18 4 -18 11 0 10 -3 9 -9 -2 -13 -19 -101
-21 -109 -2 -4 12 -6 12 -13 0 -6 -12 -25 -14 -71 -9 -9 1 -11 45 -2 53 10 10
74 4 74 -6z m-680 -76 c0 -5 -6 -10 -12 -11 -9 0 -9 -2 1 -6 11 -5 11 -7 0
-14 -10 -6 -11 -9 -1 -9 6 0 12 -4 12 -10 0 -5 -9 -10 -20 -10 -16 0 -20 7
-20 35 0 28 4 35 20 35 11 0 20 -4 20 -10z m50 -10 c0 7 7 10 15 7 8 -4 17 -2
20 3 10 17 25 11 35 -12 7 -18 9 -19 9 -5 1 19 21 24 21 5 0 -9 4 -8 11 2 8
12 12 12 16 2 4 -10 8 -9 19 5 12 16 13 15 14 -17 0 -20 5 -41 12 -48 9 -9 8
-12 -7 -12 -12 0 -16 -3 -9 -8 6 -4 13 -15 17 -24 5 -16 0 -18 -38 -18 -33 0
-45 4 -45 15 0 16 -30 10 -42 -9 -4 -6 -9 -4 -13 7 -6 14 -10 15 -28 4 -25
-13 -87 -16 -87 -4 0 15 20 47 30 47 4 0 13 -12 18 -27 l10 -28 1 28 c1 26 2
27 61 27 57 0 66 -5 61 -32 0 -5 6 -8 14 -8 9 0 15 6 14 13 -3 25 1 38 11 32
16 -10 12 11 -5 25 -12 10 -15 10 -15 -2 0 -12 -13 -15 -60 -14 -33 1 -62 5
-66 8 -3 4 -12 4 -20 1 -10 -4 -14 4 -14 27 0 32 0 33 20 15 13 -12 20 -14 20
-5z m319 1 c5 -7 6 -22 4 -32 -4 -15 -8 -17 -19 -8 -10 8 -14 8 -14 0 0 -6
-23 -10 -60 -10 -58 1 -60 2 -60 28 0 15 3 30 6 33 12 13 135 3 143 -11z
m-1459 -6 c0 -8 -9 -19 -20 -25 -18 -9 -20 -8 -20 15 0 18 5 25 20 25 11 0 20
-7 20 -15z m50 4 c0 -8 4 -8 13 -2 14 12 107 15 107 3 0 -4 -6 -7 -12 -6 -7 0
-13 -3 -13 -9 0 -5 6 -9 13 -9 15 2 16 -12 2 -21 -6 -4 -18 -1 -26 6 -11 9
-18 9 -26 1 -16 -16 -24 -15 -42 4 -15 14 -16 14 -16 -3 0 -15 -2 -16 -10 -3
-9 13 -11 13 -20 0 -7 -11 -10 -7 -10 18 0 25 4 32 20 32 11 0 20 -5 20 -11z
m173 -19 c-3 -23 -2 -23 11 -8 7 10 16 15 20 11 4 -4 4 0 0 10 -9 25 11 21 24
-5 l11 -23 0 23 c1 24 17 30 24 10 3 -10 7 -10 20 1 15 12 17 10 17 -15 0 -22
-3 -26 -10 -14 -5 8 -10 10 -10 4 0 -6 -15 -11 -32 -10 -18 1 -43 -2 -55 -6
-12 -4 -25 -3 -28 2 -3 5 -12 7 -20 3 -11 -4 -15 2 -15 22 0 22 4 26 23 23 17
-2 21 -9 20 -28z m181 18 c5 -10 7 -10 12 0 11 23 24 12 23 -20 0 -18 -3 -28
-5 -21 -3 7 -12 9 -20 6 -8 -3 -14 1 -14 8 0 11 -3 11 -10 -1 -8 -12 -10 -9
-10 13 0 28 14 37 24 15z m96 -36 c0 -11 -3 -12 -13 -3 -10 8 -17 7 -25 -1
-16 -16 -16 5 -1 34 11 21 12 21 25 3 8 -10 14 -25 14 -33z m40 37 c0 22 20
11 21 -11 l0 -23 11 23 c12 25 34 31 24 6 -3 -8 -2 -12 4 -9 6 3 10 4 10 1 0
-2 3 -12 7 -22 5 -13 3 -15 -8 -9 -7 5 -26 8 -41 7 -14 -1 -30 3 -34 10 -5 8
-10 6 -15 -8 -6 -15 -8 -11 -8 15 -1 29 1 32 14 21 10 -9 15 -9 15 -1z m130 2
c0 -5 -6 -8 -12 -7 -7 0 -13 -3 -13 -9 0 -5 6 -9 13 -9 15 2 16 -12 1 -22 -16
-9 -43 21 -36 40 7 17 47 23 47 7z m40 -1 c-13 -9 -13 -10 0 -10 13 0 13 -1 0
-10 -10 -6 -11 -10 -2 -10 6 0 12 -4 12 -10 0 -5 -9 -10 -20 -10 -16 0 -20 7
-20 30 0 24 4 30 23 30 18 0 19 -2 7 -10z m65 -22 c1 -29 -10 -37 -18 -15 -4
9 -8 8 -16 -3 -8 -12 -11 -8 -11 18 0 29 3 33 23 30 16 -2 22 -10 22 -30z
m161 21 c4 -8 9 -8 17 0 18 18 27 13 27 -14 0 -22 -4 -25 -25 -21 -14 3 -25 0
-25 -5 0 -6 -4 -7 -10 -4 -13 8 -13 55 -1 55 6 0 13 -5 17 -11z m75 -29 c5 0
9 -4 9 -10 0 -5 -7 -10 -15 -10 -11 0 -15 10 -14 33 1 23 3 26 6 10 2 -13 9
-23 14 -23z m-861 -49 c11 -22 13 -38 3 -28 -3 4 -12 2 -20 -4 -10 -9 -13 -5
-13 20 0 35 14 41 30 12z m33 -34 c-4 -6 -10 -1 -15 12 -4 13 -5 28 -1 34 4 6
10 1 15 -12 4 -13 5 -28 1 -34z m28 41 c0 -10 2 -10 6 0 6 14 43 17 43 2 0 -5
-7 -7 -15 -4 -9 4 -15 0 -15 -10 0 -9 7 -16 15 -16 8 0 15 -4 15 -10 0 -17
-28 -11 -39 8 -10 16 -10 16 -11 -2 0 -25 -5 -18 -14 17 -4 16 -2 27 4 27 5 0
10 -6 11 -12z m109 1 c0 -8 4 -8 13 -1 6 5 32 10 55 9 24 0 38 -3 32 -7 -8 -5
-7 -9 3 -13 9 -3 18 1 21 9 9 23 50 13 54 -12 3 -24 -25 -41 -41 -25 -6 6 -16
5 -28 -2 -14 -9 -21 -9 -30 0 -9 9 -16 9 -31 0 -16 -10 -22 -9 -34 7 -13 19
-14 19 -14 2 0 -15 -3 -16 -15 -6 -12 10 -15 10 -15 0 0 -22 -14 -1 -17 25 -3
21 1 25 22 25 14 0 25 -5 25 -11z m262 -19 c-5 -32 -22 -32 -22 1 0 13 -7 19
-22 18 -17 0 -19 -2 -8 -7 14 -6 14 -9 -2 -24 -17 -17 -18 -17 -18 12 0 28 2
30 38 30 37 0 38 -1 34 -30z m1618 4 c6 -14 10 -27 10 -28 0 -2 -13 -3 -30 -2
-16 1 -30 2 -30 3 0 14 22 53 30 53 6 0 15 -12 20 -26z m-2031 -393 c8 -5 11
-16 8 -24 -4 -12 -15 -14 -41 -10 -46 7 -46 -2 2 -24 40 -19 53 -52 32 -79
-14 -16 -86 -19 -109 -5 -20 13 -6 45 17 36 26 -11 51 -11 51 0 1 6 -13 15
-30 20 -28 10 -48 30 -49 48 0 4 9 16 20 27 21 21 74 27 99 11z m161 -11 c0
-17 -7 -20 -40 -20 -22 0 -40 -4 -40 -10 0 -5 16 -10 35 -10 28 0 35 -4 35
-20 0 -16 -7 -20 -35 -20 -24 0 -35 -5 -35 -15 0 -11 11 -15 40 -15 29 0 40
-4 40 -15 0 -12 -14 -15 -65 -15 l-65 0 0 80 0 80 65 0 c58 0 65 -2 65 -20z
m138 4 c46 -32 15 -104 -45 -104 -16 0 -23 -6 -23 -20 0 -14 -7 -20 -23 -20
-22 0 -22 3 -21 78 1 42 3 78 3 80 4 9 91 -1 109 -14z m162 -4 c0 -13 -7 -20
-20 -20 -18 0 -20 -7 -20 -60 0 -57 -1 -60 -25 -60 -24 0 -25 3 -25 59 0 54
-2 60 -22 63 -13 2 -24 11 -26 21 -3 15 5 17 67 17 64 0 71 -2 71 -20z m130
-60 c0 -79 0 -80 -25 -80 -24 0 -25 3 -25 56 0 41 -5 60 -17 69 -23 17 -7 35
33 35 l34 0 0 -80z m128 68 c19 -19 14 -48 -14 -85 l-25 -33 30 0 c21 0 31 -5
31 -15 0 -12 -13 -15 -60 -15 -72 0 -77 12 -25 69 19 21 35 42 35 46 0 4 -15
5 -34 2 -41 -7 -54 12 -22 30 27 16 69 16 84 1z m246 -4 c23 -22 20 -34 -15
-77 l-30 -37 30 0 c21 0 31 -5 31 -15 0 -12 -13 -15 -60 -15 -38 0 -60 4 -60
11 0 6 16 29 35 50 19 22 35 44 35 50 0 7 -12 9 -35 5 -27 -5 -35 -4 -35 8 0
34 76 49 104 20z m156 -11 c17 -22 21 -37 17 -66 -7 -51 -23 -67 -67 -67 -50
0 -75 28 -74 83 2 74 80 105 124 50z m131 17 c26 -14 24 -43 -6 -78 -32 -38
-31 -42 5 -42 20 0 30 -5 30 -15 0 -12 -14 -15 -65 -15 -37 0 -65 4 -65 10 0
5 16 27 35 49 44 48 45 66 5 58 -35 -8 -51 11 -25 30 22 16 59 17 86 3z m159
-10 c14 -14 20 -33 20 -62 0 -54 -22 -78 -71 -78 -45 0 -69 27 -69 79 0 68 75
106 120 61z m-624 -114 c6 -17 -12 -56 -26 -56 -11 0 -14 53 -3 63 11 11 23 8
29 -7z m-796 -176 c0 -16 -7 -20 -30 -20 -16 0 -30 -4 -30 -10 0 -5 8 -10 18
-10 27 0 54 -34 50 -62 -7 -48 -107 -60 -116 -14 -3 15 2 16 33 10 33 -6 37
-4 33 12 -3 14 -11 18 -31 17 -26 -2 -27 0 -27 48 l0 49 50 0 c43 0 50 -3 50
-20z m207 -6 c29 -40 2 -94 -48 -94 -21 0 -28 -5 -31 -22 -2 -15 -10 -23 -23
-23 -18 0 -20 8 -23 69 -2 38 0 76 3 84 8 21 104 11 122 -14z m99 -24 l21 -44
21 48 c18 39 26 47 44 44 22 -3 23 -7 23 -83 0 -67 -3 -80 -17 -83 -14 -3 -17
6 -20 45 l-3 48 -17 -37 c-22 -48 -43 -48 -60 -1 l-13 37 -5 -45 c-4 -31 -10
-45 -22 -47 -16 -3 -18 6 -18 83 0 84 1 86 22 83 16 -2 30 -17 44 -48z m302
34 c44 -31 17 -104 -39 -104 -21 0 -28 -5 -31 -22 -2 -13 -11 -24 -20 -26 -16
-3 -18 6 -18 82 l0 86 43 0 c23 0 53 -7 65 -16z m140 10 c13 -4 22 -14 22 -25
0 -17 -5 -18 -42 -13 -40 5 -42 4 -24 -10 11 -9 25 -16 31 -16 7 0 20 -9 29
-19 23 -26 13 -59 -22 -72 -37 -15 -105 5 -100 29 4 17 11 18 61 6 30 -7 39
13 10 22 -44 14 -63 29 -63 48 0 46 39 65 98 50z m172 -14 c0 -15 -7 -20 -25
-20 -24 0 -25 -2 -25 -65 0 -58 -2 -65 -20 -65 -18 0 -20 7 -20 65 0 63 -1 65
-25 65 -18 0 -25 5 -25 20 0 18 7 20 70 20 63 0 70 -2 70 -20z m-935 -289 c-3
-5 -1 -12 5 -16 20 -12 9 -25 -20 -23 -19 1 -30 8 -30 18 -1 12 -3 12 -11 -3
-12 -20 -29 -14 -29 11 0 15 2 15 10 2 6 -10 10 -11 10 -2 0 17 27 15 34 -3 3
-8 11 -15 17 -15 8 0 9 4 0 13 -11 14 -5 27 11 27 5 0 7 -4 3 -9z m67 -16 c-2
-14 -6 -25 -7 -25 -1 0 -5 11 -7 25 -3 16 -1 25 7 25 8 0 10 -9 7 -25z m53 8
c-2 -10 -4 -22 -4 -27 -1 -6 -6 -5 -12 1 -13 13 -5 43 10 43 5 0 8 -8 6 -17z
m56 -11 c0 -12 3 -11 9 6 5 12 17 22 27 22 17 -1 16 -2 -1 -12 -18 -10 -18
-11 -2 -24 16 -11 12 -12 -28 -11 -25 1 -46 3 -46 5 0 2 5 12 11 23 11 22 29
17 30 -9z m91 19 c-8 -4 -14 -12 -14 -16 0 -4 6 -12 14 -16 9 -6 7 -9 -9 -9
-18 0 -23 6 -23 25 0 19 5 25 23 25 16 0 18 -3 9 -9z m50 -12 c-1 -9 4 -7 13
6 13 16 19 17 34 8 13 -8 22 -8 29 -1 14 14 42 3 42 -17 0 -21 -27 -30 -45
-15 -9 8 -15 8 -15 2 0 -6 -20 -10 -45 -10 -41 1 -45 3 -45 25 0 18 5 23 18
21 9 -2 16 -11 14 -19z m152 -6 c18 -21 18 -22 -3 -20 -15 1 -21 8 -21 26 0
13 1 22 3 20 1 -2 11 -14 21 -26z m64 20 c-10 -2 -18 -11 -18 -18 0 -7 8 -16
18 -18 13 -4 11 -5 -5 -6 -16 -1 -23 5 -23 17 0 23 9 32 29 31 13 -1 13 -2 -1
-6z m62 -3 c0 -5 -7 -7 -15 -4 -9 4 -15 0 -15 -10 0 -18 15 -22 25 -6 4 6 11
8 16 5 17 -11 9 -21 -18 -23 -30 -2 -47 16 -31 35 12 15 38 17 38 3z m34 -2
c5 -10 7 -10 12 0 9 20 24 14 25 -10 l0 -23 9 23 c10 24 26 29 33 10 4 -9 8
-9 14 -3 4 6 22 11 38 13 20 2 26 0 17 -6 -8 -5 -14 -13 -14 -17 0 -4 6 -12
14 -16 9 -6 7 -9 -9 -9 -15 0 -23 6 -24 18 -1 15 -2 14 -6 -2 -4 -15 -7 -16
-14 -5 -8 12 -11 12 -19 -1 -8 -12 -10 -10 -10 10 -1 24 -1 24 -14 -5 -12 -25
-15 -27 -21 -13 -4 10 -11 15 -16 12 -11 -6 -39 13 -39 27 0 13 18 11 24 -3z
m204 -15 c3 -17 -2 -21 -17 -20 -15 1 -21 8 -21 25 0 31 34 26 38 -5z m34 2
c-2 -14 -6 -25 -7 -25 -1 0 -5 11 -7 25 -3 16 -1 25 7 25 8 0 10 -9 7 -25z
m39 18 c-11 -5 -11 -7 0 -14 12 -7 11 -9 -1 -9 -13 0 -13 -1 0 -10 13 -8 12
-10 -2 -10 -13 0 -18 8 -18 25 0 17 5 25 18 24 12 0 13 -2 3 -6z m59 -4 c0 -5
-4 -8 -9 -4 -5 3 -12 1 -16 -4 -3 -5 3 -14 12 -20 16 -9 16 -10 1 -11 -21 0
-32 16 -24 35 6 17 36 20 36 4z m53 0 c18 7 27 7 31 -2 3 -9 7 -8 15 3 9 13
11 13 11 1 0 -12 3 -12 12 -3 15 15 38 16 38 2 0 -6 -5 -9 -11 -7 -6 1 -14 -4
-16 -10 -6 -18 12 -16 27 2 13 16 35 21 25 6 -3 -5 -1 -12 4 -16 5 -3 15 3 21
12 10 17 11 16 8 -2 -3 -16 -12 -20 -48 -22 -25 -1 -48 4 -52 10 -5 8 -8 7 -8
-3 0 -13 -1 -13 -10 0 -9 13 -11 13 -20 0 -8 -13 -10 -12 -10 3 0 9 -4 17 -10
17 -5 0 -9 -3 -9 -7 3 -20 -2 -26 -11 -13 -9 13 -11 13 -20 0 -7 -12 -10 -8
-10 15 0 19 3 25 8 17 7 -9 15 -10 35 -3z m213 -16 c1 -15 -4 -21 -17 -20 -13
1 -19 9 -19 25 0 31 35 26 36 -5z m110 15 c4 -6 9 -6 14 2 11 18 40 4 40 -19
0 -20 -29 -24 -42 -6 -5 6 -8 5 -8 -2 0 -21 -41 -15 -47 7 -5 18 -25 30 -22
13 3 -19 -2 -33 -11 -33 -11 0 -14 33 -4 42 9 10 74 7 80 -4z m101 -30 c-20
-13 -27 -9 -23 15 3 12 5 24 5 26 1 3 7 -4 15 -15 11 -14 11 -21 3 -26z m49
33 c12 9 18 9 27 0 9 -10 9 -12 -2 -9 -7 2 -16 -3 -18 -9 -7 -20 12 -15 32 7
24 27 45 25 45 -3 0 -20 -5 -23 -45 -24 -30 -2 -45 2 -45 10 0 8 -3 8 -9 -1
-7 -11 -10 -10 -15 3 -3 9 -3 22 1 28 5 8 8 7 11 -1 3 -10 7 -10 18 -1z m125
2 c-11 -5 -11 -7 0 -14 12 -7 11 -9 -1 -9 -13 0 -13 -1 0 -10 12 -8 11 -10 -7
-10 -21 0 -24 12 -14 48 1 1 9 2 19 1 12 0 13 -2 3 -6z m46 -30 c-3 -10 -5 -4
-5 12 0 17 2 24 5 18 2 -7 2 -21 0 -30z m-1630 -5 c-3 -7 -5 -2 -5 12 0 14 2
19 5 13 2 -7 2 -19 0 -25z"/>
<path d="M2907 3683 c-16 -16 -5 -33 21 -33 35 0 45 9 31 27 -12 14 -41 18
-52 6z"/>
<path d="M2903 3585 c0 -10 11 -15 34 -15 23 0 33 5 33 15 0 10 -10 15 -33 15
-23 0 -34 -5 -34 -15z"/>
<path d="M3610 3625 c0 -54 1 -55 28 -55 34 0 52 16 52 48 0 40 -18 62 -50 62
-30 0 -30 -1 -30 -55z"/>
<path d="M2620 3400 c0 -17 5 -21 28 -18 16 2 27 9 27 18 0 9 -11 16 -27 18
-23 3 -28 -1 -28 -18z"/>
<path d="M2620 3321 c0 -17 6 -21 31 -21 24 0 30 4 27 18 -2 10 -14 18 -31 20
-22 3 -27 -1 -27 -17z"/>
<path d="M3897 3413 c-4 -3 -7 -17 -7 -30 0 -21 4 -24 32 -21 52 5 49 57 -3
58 -9 0 -19 -3 -22 -7z"/>
<path d="M3067 3132 c-10 -10 -17 -28 -17 -40 0 -28 37 -65 57 -58 8 3 18 6
23 6 4 0 13 13 20 30 24 59 -42 108 -83 62z"/>
<path d="M3530 3120 c0 -25 4 -30 25 -30 29 0 50 31 33 48 -7 7 -22 12 -35 12
-19 0 -23 -5 -23 -30z"/>
<path d="M3810 3120 c0 -29 2 -31 33 -28 27 2 32 7 32 28 0 21 -5 26 -32 28
-31 3 -33 1 -33 -28z"/>
<path d="M2357 2219 c4 -12 11 -18 20 -15 8 3 17 6 20 6 3 0 0 7 -7 15 -19 22
-39 19 -33 -6z"/>
<path d="M4114 2253 c-27 -43 -30 -121 -6 -169 l20 -39 -5 60 c-3 33 -1 85 5
115 6 30 9 56 7 58 -1 1 -10 -10 -21 -25z"/>
<path d="M4268 2223 c7 -3 16 -2 19 1 4 3 -2 6 -13 5 -11 0 -14 -3 -6 -6z"/>
<path d="M4145 2190 c-3 -5 3 -10 14 -10 12 0 21 5 21 10 0 6 -6 10 -14 10 -8
0 -18 -4 -21 -10z"/>
<path d="M4260 2185 c-7 -9 -10 -19 -6 -22 4 -4 11 -1 15 6 6 9 18 11 35 7 28
-7 36 8 10 18 -25 10 -41 7 -54 -9z"/>
<path d="M4139 2153 c-13 -15 -11 -16 14 -9 17 4 27 2 27 -4 0 -6 5 -8 10 -5
6 3 10 13 10 21 0 20 -44 18 -61 -3z"/>
<path d="M4171 2063 c-10 -26 -10 -27 4 -9 8 11 15 23 15 28 0 15 -7 8 -19
-19z"/>
<path d="M4186 2042 c-3 -6 -1 -14 5 -17 15 -10 25 3 12 16 -7 7 -13 7 -17 1z"/>
<path d="M2606 2145 c-3 -9 0 -15 9 -15 16 0 20 16 6 24 -5 3 -11 -1 -15 -9z"/>
<path d="M3360 2028 c-22 -10 -23 -12 -6 -15 10 -3 26 2 34 11 19 18 8 20 -28
4z"/>
<path d="M2422 1555 c-11 -13 -9 -15 8 -15 11 0 20 7 20 15 0 19 -11 19 -28 0z"/>
<path d="M3362 1555 c-11 -12 -10 -15 3 -15 8 0 15 7 15 15 0 18 -2 18 -18 0z"/>
<path d="M3576 1561 c-4 -5 -2 -12 3 -15 5 -4 12 -2 15 3 4 5 2 12 -3 15 -5 4
-12 2 -15 -3z"/>
<path d="M3970 1560 c0 -5 7 -10 16 -10 8 0 12 5 9 10 -3 6 -10 10 -16 10 -5
0 -9 -4 -9 -10z"/>
<path d="M4210 1560 c0 -5 7 -10 16 -10 8 0 12 5 9 10 -3 6 -10 10 -16 10 -5
0 -9 -4 -9 -10z"/>
<path d="M3440 1475 c0 -8 5 -15 10 -15 6 0 10 7 10 15 0 8 -4 15 -10 15 -5 0
-10 -7 -10 -15z"/>
<path d="M3599 1481 c11 -7 11 -9 0 -14 -10 -4 -9 -6 4 -6 9 -1 17 6 17 14 0
8 -8 15 -17 15 -14 0 -15 -2 -4 -9z"/>
<path d="M3646 1483 c5 -5 12 -12 16 -18 4 -6 8 -2 8 8 0 9 -7 17 -17 17 -9 0
-12 -3 -7 -7z"/>
<path d="M2230 1480 c0 -5 5 -10 10 -10 6 0 10 5 10 10 0 6 -4 10 -10 10 -5 0
-10 -4 -10 -10z"/>
<path d="M2280 1480 c0 -5 5 -10 10 -10 6 0 10 5 10 10 0 6 -4 10 -10 10 -5 0
-10 -4 -10 -10z"/>
<path d="M2337 1483 c-12 -11 -8 -23 8 -23 8 0 15 7 15 15 0 16 -12 20 -23 8z"/>
<path d="M2550 1410 c0 -5 5 -10 10 -10 6 0 10 5 10 10 0 6 -4 10 -10 10 -5 0
-10 -4 -10 -10z"/>
<path d="M2605 1409 c-10 -15 1 -23 20 -15 9 3 13 10 10 16 -8 13 -22 13 -30
-1z"/>
<path d="M2715 1410 c-3 -6 1 -13 10 -16 19 -8 30 0 20 15 -8 14 -22 14 -30 1z"/>
<path d="M2650 1400 c0 -6 7 -10 15 -10 8 0 15 2 15 4 0 2 -7 6 -15 10 -8 3
-15 1 -15 -4z"/>
<path d="M2660 960 c0 -16 5 -21 23 -18 12 2 22 10 22 18 0 8 -10 16 -22 18
-18 3 -23 -2 -23 -18z"/>
<path d="M3480 975 c-6 -8 -10 -29 -8 -47 2 -25 8 -33 23 -33 16 0 21 8 23 41
3 45 -17 65 -38 39z"/>
<path d="M3770 969 c-16 -29 -3 -79 21 -79 24 0 36 43 20 76 -13 29 -27 31
-41 3z"/>
<path d="M2550 665 c0 -28 8 -31 35 -12 21 16 12 37 -16 37 -14 0 -19 -7 -19
-25z"/>
<path d="M2960 664 c0 -22 3 -24 23 -18 29 9 31 10 24 29 -4 8 -16 15 -27 15
-15 0 -20 -7 -20 -26z"/>
<path d="M2747 414 c-8 -8 1 -24 14 -24 5 0 9 7 9 15 0 15 -12 20 -23 9z"/>
<path d="M2805 409 c-10 -15 3 -25 16 -12 7 7 7 13 1 17 -6 3 -14 1 -17 -5z"/>
<path d="M3210 410 c0 -5 5 -10 11 -10 5 0 7 5 4 10 -3 6 -8 10 -11 10 -2 0
-4 -4 -4 -10z"/>
<path d="M3716 412 c-3 -6 -1 -14 5 -17 15 -10 25 3 12 16 -7 7 -13 7 -17 1z"/>
<path d="M3770 410 c0 -5 5 -10 10 -10 6 0 10 5 10 10 0 6 -4 10 -10 10 -5 0
-10 -4 -10 -10z"/>
<path d="M3655 3960 c-4 -6 3 -10 14 -10 25 0 27 6 6 13 -8 4 -17 2 -20 -3z"/>
<path d="M4070 3599 c0 -5 5 -7 10 -4 6 3 10 8 10 11 0 2 -4 4 -10 4 -5 0 -10
-5 -10 -11z"/>
<path d="M4117 3399 c7 -7 15 -10 18 -7 3 3 -2 9 -12 12 -14 6 -15 5 -6 -5z"/>
<path d="M4476 3053 c-6 -14 -5 -15 5 -6 7 7 10 15 7 18 -3 3 -9 -2 -12 -12z"/>
<path d="M5074 2451 c-2 -2 -4 -11 -4 -20 0 -12 3 -12 12 -3 17 17 28 15 28
-6 0 -14 -8 -18 -31 -18 -27 0 -30 3 -26 23 4 20 0 23 -24 23 -35 0 -36 -9 -8
-39 l21 -23 -25 -26 c-40 -42 -56 -119 -63 -307 -8 -227 -8 -213 -1 -270 3
-27 6 -57 6 -67 1 -9 14 -21 30 -26 l29 -10 6 66 c3 37 6 88 6 114 0 33 6 57
25 84 33 48 32 70 -5 89 -40 21 -59 51 -62 105 -3 39 0 45 17 46 48 2 56 5 62
19 3 9 -2 22 -13 30 -18 13 -17 16 25 54 24 23 48 41 52 41 8 0 12 -6 62 -99
15 -28 32 -51 37 -51 17 0 11 -48 -7 -59 -16 -9 -16 -12 -3 -21 8 -5 12 -10 8
-11 -5 -1 -11 -2 -15 -3 -5 0 -25 -15 -45 -31 -27 -21 -38 -38 -38 -57 0 -39
16 -43 41 -8 24 32 42 40 33 15 -11 -27 5 -16 21 15 20 38 19 43 -5 37 -11 -3
-23 -1 -26 4 -3 5 4 9 14 9 15 0 25 15 42 60 20 53 21 64 10 110 -16 67 -47
111 -95 135 -36 18 -39 22 -30 42 5 12 20 24 35 26 14 1 -1 5 -33 7 -32 3 -61
3 -63 1z m56 -99 c0 -5 -7 -9 -15 -9 -8 0 -12 4 -9 9 3 4 9 8 15 8 5 0 9 -4 9
-8z m-80 -354 c11 3 11 0 -3 -14 -15 -17 -19 -17 -27 -4 -5 8 -10 24 -9 35 0
19 0 19 12 -1 7 -12 19 -19 27 -16z m-43 -40 c-3 -8 -6 -5 -6 6 -1 11 2 17 5
13 3 -3 4 -12 1 -19z m3 -203 c0 -25 -3 -45 -8 -45 -4 0 -6 20 -4 45 2 25 6
45 8 45 2 0 4 -20 4 -45z"/>
<path d="M4929 2423 c-1 -4 -1 -12 0 -16 1 -5 -3 -6 -9 -2 -11 7 -55 -14 -47
-22 3 -2 22 -8 41 -13 35 -8 36 -7 36 20 0 26 -18 54 -21 33z"/>
<path d="M4920 2350 c0 -5 5 -10 11 -10 5 0 7 5 4 10 -3 6 -8 10 -11 10 -2 0
-4 -4 -4 -10z"/>
<path d="M5345 2340 c-17 -7 -17 -9 -2 -9 18 -1 17 7 19 -201 l1 -95 7 75 c10
103 12 240 3 239 -5 0 -17 -4 -28 -9z"/>
<path d="M4903 2255 c0 -22 2 -30 4 -17 2 12 2 30 0 40 -3 9 -5 -1 -4 -23z"/>
<path d="M5403 2250 c0 -25 2 -35 4 -22 2 12 2 32 0 45 -2 12 -4 2 -4 -23z"/>
<path d="M5343 2245 c0 -22 2 -30 4 -17 2 12 2 30 0 40 -3 9 -5 -1 -4 -23z"/>
<path d="M5430 2231 c0 -12 5 -21 10 -21 6 0 10 6 10 14 0 8 -4 18 -10 21 -5
3 -10 -3 -10 -14z"/>
<path d="M5097 2233 c-14 -13 -6 -34 15 -42 24 -9 68 8 68 25 0 18 -68 32 -83
17z"/>
<path d="M5276 2147 c3 -10 9 -15 12 -12 3 3 0 11 -7 18 -10 9 -11 8 -5 -6z"/>
<path d="M5300 2096 c0 -8 5 -18 10 -21 6 -3 10 1 10 9 0 8 -4 18 -10 21 -5 3
-10 -1 -10 -9z"/>
<path d="M4731 2093 c0 -5 4 -17 9 -28 8 -18 9 -17 9 8 1 15 -3 27 -9 27 -5 0
-10 -3 -9 -7z"/>
<path d="M4736 1983 c-11 -11 -6 -23 8 -23 8 0 17 4 20 9 7 10 -19 23 -28 14z"/>
<path d="M5086 1952 c-4 -13 -5 -26 -2 -29 10 -11 18 4 14 29 l-4 23 -8 -23z"/>
<path d="M5326 1963 c-4 -5 -11 -8 -14 -9 -63 -5 -89 -33 -59 -63 10 -10 8
-11 -8 -5 -17 7 -18 5 -8 -8 7 -8 9 -18 5 -23 -4 -4 4 -2 16 4 13 7 26 10 30
7 3 -3 0 -6 -6 -6 -7 0 -12 -4 -12 -10 0 -6 9 -6 26 0 33 13 57 13 49 0 -3 -5
-19 -10 -36 -10 -34 0 -38 -17 -11 -46 10 -11 17 -25 14 -32 -6 -18 -20 -15
-25 6 -4 13 -5 11 -6 -5 -2 -41 34 -25 98 42 33 36 61 73 61 83 0 24 -16 46
-27 39 -6 -4 -16 5 -23 18 -13 24 -48 34 -64 18z m14 -38 c0 -2 -13 -11 -30
-20 -33 -17 -40 -10 -12 11 17 13 42 19 42 9z m-10 -115 c0 -5 -5 -10 -11 -10
-5 0 -7 5 -4 10 3 6 8 10 11 10 2 0 4 -4 4 -10z"/>
<path d="M5142 1898 c-17 -35 -32 -54 -32 -44 0 11 -2 17 -5 14 -4 -3 -3 -18
1 -32 l6 -27 17 28 c20 33 52 115 47 120 -1 2 -17 -25 -34 -59z"/>
<path d="M4730 1933 c0 -11 14 -35 30 -53 17 -18 30 -37 30 -42 0 -4 5 -8 10
-8 16 0 24 31 11 40 -7 4 -18 18 -24 30 -7 13 -22 30 -34 38 -21 13 -23 13
-23 -5z"/>
<path d="M4820 1900 c0 -11 4 -20 9 -20 5 0 11 9 14 20 3 13 0 20 -9 20 -8 0
-14 -9 -14 -20z"/>
<path d="M4850 1880 c0 -5 5 -10 10 -10 6 0 10 5 10 10 0 6 -4 10 -10 10 -5 0
-10 -4 -10 -10z"/>
<path d="M4860 1840 c0 -5 7 -10 16 -10 8 0 12 5 9 10 -3 6 -10 10 -16 10 -5
0 -9 -4 -9 -10z"/>
<path d="M5091 1814 c0 -11 3 -14 6 -6 3 7 2 16 -1 19 -3 4 -6 -2 -5 -13z"/>
<path d="M5220 1763 c0 -14 31 -46 37 -39 3 3 -4 15 -16 27 -12 13 -21 18 -21
12z"/>
<path d="M5090 1741 c0 -8 -7 -11 -20 -8 -11 3 -20 2 -20 -1 0 -4 -3 -17 -6
-30 -6 -22 -5 -23 50 -21 52 2 68 10 47 23 -5 4 -11 1 -13 -5 -2 -7 -12 3 -21
22 -9 19 -17 28 -17 20z"/>
<path d="M5156 1733 c-7 -23 2 -53 15 -53 11 0 11 41 0 59 -7 11 -10 10 -15
-6z"/>
<path d="M5195 1700 c-3 -5 -1 -10 4 -10 6 0 11 5 11 10 0 6 -2 10 -4 10 -3 0
-8 -4 -11 -10z"/>
<path d="M4474 1569 c-3 -6 -2 -15 3 -20 5 -5 9 -1 10 11 2 22 -2 25 -13 9z"/>
<path d="M4510 1560 c0 -5 5 -10 10 -10 6 0 10 5 10 10 0 6 -4 10 -10 10 -5 0
-10 -4 -10 -10z"/>
<path d="M4180 1475 c0 -9 5 -15 11 -13 6 2 11 8 11 13 0 5 -5 11 -11 13 -6 2
-11 -4 -11 -13z"/>
<path d="M4370 1476 c0 -9 5 -16 10 -16 6 0 10 4 10 9 0 6 -4 13 -10 16 -5 3
-10 -1 -10 -9z"/>
<path d="M4439 1481 c11 -7 11 -9 0 -14 -10 -4 -9 -6 4 -6 9 -1 17 6 17 14 0
8 -8 15 -17 15 -14 0 -15 -2 -4 -9z"/>
<path d="M4480 1450 c0 -5 5 -10 11 -10 5 0 7 5 4 10 -3 6 -8 10 -11 10 -2 0
-4 -4 -4 -10z"/>
<path d="M4317 1414 c-8 -8 1 -24 14 -24 5 0 9 7 9 15 0 15 -12 20 -23 9z"/>
<path d="M5105 1155 c-44 -19 -73 -55 -100 -121 -13 -32 -29 -60 -34 -62 -6
-2 -11 -10 -11 -18 0 -8 -16 -31 -35 -53 -19 -21 -35 -45 -35 -53 0 -8 -11
-25 -25 -38 -14 -13 -25 -30 -25 -37 0 -8 -4 -11 -10 -8 -5 3 -10 -1 -10 -9 0
-51 61 -126 134 -164 44 -23 63 -27 142 -27 75 0 99 4 142 24 29 14 52 28 52
33 0 4 6 8 14 8 49 0 50 99 2 149 -36 37 -55 108 -49 179 6 65 -18 129 -67
182 -31 33 -41 35 -85 15z m70 -61 c48 -49 64 -142 33 -203 -12 -22 -15 -39
-9 -50 22 -40 -86 -227 -110 -190 -4 8 -6 24 -2 37 3 13 6 36 7 51 1 16 7 35
14 43 18 22 32 106 18 112 -7 3 -7 8 3 14 9 7 10 12 2 16 -6 4 -11 25 -11 47
0 26 -5 42 -15 45 -19 8 -19 27 0 64 17 33 45 39 70 14z"/>
<path d="M5150 1011 c-7 -13 -7 -22 0 -26 15 -9 29 3 27 25 -2 25 -13 26 -27
1z"/>
<path d="M4190 453 c1 -14 47 -65 47 -51 0 7 -11 23 -24 36 -13 12 -23 19 -23
15z"/>
<path d="M4750 412 c14 -2 31 -9 38 -14 8 -7 12 -7 12 1 0 15 27 14 33 -1 4
-10 6 -10 6 0 1 14 57 16 64 2 3 -6 4 -5 3 2 -2 9 -28 13 -92 14 -49 0 -78 -1
-64 -4z"/>
<path d="M4734 370 c1 -17 6 -25 19 -24 9 1 17 -2 17 -8 0 -5 5 -6 11 -2 15 9
-9 24 -27 17 -7 -3 -14 5 -17 19 -4 21 -4 21 -3 -2z"/>
<path d="M5001 384 c0 -11 3 -14 6 -6 3 7 2 16 -1 19 -3 4 -6 -2 -5 -13z"/>
<path d="M4145 379 c-11 -16 -1 -19 13 -3 7 8 8 14 3 14 -5 0 -13 -5 -16 -11z"/>
<path d="M4860 379 c0 -5 5 -7 10 -4 6 3 10 8 10 11 0 2 -4 4 -10 4 -5 0 -10
-5 -10 -11z"/>
<path d="M4902 353 c1 -11 7 -19 14 -16 15 5 24 -43 11 -56 -7 -7 -2 -8 12 -4
16 4 19 9 12 16 -6 6 -11 24 -11 40 0 18 -4 26 -11 21 -6 -3 -15 0 -20 7 -6
10 -8 8 -7 -8z"/>
<path d="M4835 352 c-3 -3 -5 -10 -5 -16 0 -6 5 -4 10 4 5 8 10 10 10 5 0 -6
9 -11 21 -12 11 -1 19 3 17 9 -4 12 -44 19 -53 10z"/>
<path d="M5051 334 c0 -11 3 -14 6 -6 3 7 2 16 -1 19 -3 4 -6 -2 -5 -13z"/>
<path d="M4995 330 c-3 -5 -1 -10 4 -10 6 0 11 5 11 10 0 6 -2 10 -4 10 -3 0
-8 -4 -11 -10z"/>
<path d="M4960 313 c0 -25 117 -48 148 -29 6 3 15 -1 20 -10 6 -11 11 -13 16
-5 4 6 2 11 -4 11 -6 0 -8 5 -4 12 4 6 3 8 -4 4 -6 -3 -14 -2 -17 4 -5 8 -11
7 -21 -1 -11 -9 -14 -8 -14 2 0 10 -3 10 -12 1 -7 -7 -17 -8 -29 -2 -12 7 -20
6 -24 -1 -5 -7 -15 -5 -31 6 -13 8 -24 12 -24 8z"/>
<path d="M4908 295 c-3 -3 -22 -6 -42 -7 -30 -1 -40 -6 -47 -25 -11 -30 -11
-33 1 -33 6 0 10 11 10 25 0 26 15 34 23 13 4 -10 6 -10 6 0 1 6 12 12 25 12
14 0 28 5 31 10 7 11 2 14 -7 5z"/>
<path d="M4970 268 c0 -31 13 -78 21 -78 5 0 4 12 -1 26 -13 33 -13 37 3 28 7
-5 7 -1 -3 12 -8 10 -16 21 -17 23 -2 2 -3 -3 -3 -11z"/>
<path d="M5164 251 c2 -18 10 -39 16 -45 7 -7 9 -1 4 24 -9 47 -27 66 -20 21z"/>
<path d="M5008 237 c-3 -19 -2 -25 4 -19 6 6 8 18 6 28 -3 14 -5 12 -10 -9z"/>
<path d="M5085 250 c-3 -5 1 -10 10 -10 9 0 13 5 10 10 -3 6 -8 10 -10 10 -2
0 -7 -4 -10 -10z"/>
<path d="M4841 223 c-7 -8 -11 -16 -8 -19 2 -2 10 2 17 11 17 20 9 27 -9 8z"/>
<path d="M5130 231 c0 -5 -10 -12 -22 -14 -16 -3 -15 -4 4 -2 15 1 29 -3 31
-9 3 -6 8 -8 12 -4 4 4 0 14 -9 23 -9 9 -16 12 -16 6z"/>
<path d="M5203 218 c1 -15 6 -23 11 -18 4 4 4 16 -2 26 -9 16 -10 14 -9 -8z"/>
<path d="M4941 223 c-1 -17 16 -25 25 -12 4 7 3 9 -4 5 -5 -3 -13 0 -15 6 -4
9 -6 10 -6 1z"/>
<path d="M5230 221 c0 -4 7 -16 15 -27 15 -19 15 -19 8 1 -6 20 -6 20 15 1 12
-10 19 -23 15 -29 -4 -6 -1 -7 6 -3 9 6 9 12 -3 25 -9 10 -14 20 -11 23 3 3
-6 8 -20 10 -14 3 -25 2 -25 -1z"/>
<path d="M4867 213 c-6 -10 50 -9 60 0 3 4 -8 7 -25 7 -17 0 -33 -3 -35 -7z"/>
<path d="M5031 216 c2 -2 14 -9 26 -15 19 -10 22 -9 17 4 -4 8 -15 15 -27 15
-11 0 -18 -2 -16 -4z"/>
<path d="M5024 192 c4 -3 14 -7 22 -8 9 -1 13 0 10 4 -4 3 -14 7 -22 8 -9 1
-13 0 -10 -4z"/>
<path d="M5103 193 c4 -6 2 -13 -5 -15 -8 -3 -6 -6 4 -10 17 -7 19 15 3 29 -4
4 -5 3 -2 -4z"/>
</g>
</svg>
