<svg id="_x35_0" enable-background="new 0 0 512 512" height="512" viewBox="0 0 512 512" width="512" xmlns="http://www.w3.org/2000/svg"><g><g><circle cx="256" cy="256" fill="#6c7ed5" r="256"/></g><g><g><path d="m462.93 406.75c-46.56 63.8-121.91 105.25-206.93 105.25s-160.37-41.45-206.93-105.25z" fill="#d48d77"/><g fill="#eea47d"><path d="m380.58 406.75v72.95c-6.668 3.708-13.507 7.145-20.48 10.25v-83.2z"/><path d="m462.92 406.75c-4.978 6.838-10.303 13.422-15.94 19.73v-19.73z"/><path d="m200.532 406.75v42.24c0 5.66-4.59 10.25-10.25 10.25-5.65 0-10.24-4.59-10.24-10.25v-42.24z"/><path d="m305.71 437.94v69.23c-6.74 1.33-13.57 2.39-20.49 3.17v-72.4c0-5.65 4.59-10.24 10.24-10.24 5.656.004 10.249 4.576 10.25 10.24z"/><path d="m427.21 434.63v11.68c-6.53 5.9-13.37 11.45-20.49 16.63v-28.31c.528-13.576 19.964-13.571 20.49 0z"/><path d="m248.63 406.75v105.14c-6.849-.186-13.674-.653-20.48-1.39v-103.75z"/><path d="m163.68 460.62v34.23c-6.98-2.7-13.81-5.7-20.48-8.98v-25.25c.518-13.58 19.966-13.573 20.48 0z"/><path d="m95.83 407.27v48.44c-7.145-5.736-13.984-11.856-20.48-18.32v-30.12c0-.17 0-.35.01-.52h20.46c.01.18.01.35.01.52z"/></g></g></g><g><g><path d="m282.896 330.024h-53.792c-9.524 0-17.245 7.721-17.245 17.245v71.037h88.281v-71.037c.001-9.525-7.72-17.245-17.244-17.245z" fill="#334353"/><path d="m357.139 418.305h-202.278c-10.329 0-18.702 8.373-18.702 18.703 0 10.329 8.373 18.703 18.702 18.703h202.279c10.329 0 18.703-8.373 18.703-18.703-.001-10.33-8.374-18.703-18.704-18.703z" fill="#334353"/><path d="m318.361 418.305h-124.722c-6.369 0-11.532 5.163-11.532 11.532 0 6.369 5.163 11.532 11.532 11.532h124.722c6.369 0 11.532-5.163 11.532-11.532-.001-6.369-5.163-11.532-11.532-11.532z" fill="#3e4e60"/><path d="m446.321 126.531v211.03c0 5.754-1.71 11.132-4.665 15.629-3.707 5.754-9.421 10.043-16.173 11.923-2.462.713-5.093 1.089-7.75 1.089h-323.465c-2.709 0-5.287-.376-7.75-1.089-6.752-1.879-12.467-6.169-16.173-11.923-2.955-4.497-4.665-9.875-4.665-15.629v-211.03c0-2.657.376-5.287 1.075-7.75 2.67-9.551 10.173-17.093 19.763-19.763 2.462-.7 5.093-1.076 7.75-1.076h323.465c2.709 0 5.287.376 7.75 1.076 9.551 2.67 17.093 10.173 19.763 19.763.699 2.462 1.075 5.093 1.075 7.75z" fill="#3f5d77"/><path d="m107.37 126.531v211.03c0 5.754-1.711 11.132-4.678 15.629-3.706 5.754-9.421 10.043-16.173 11.923-6.752-1.879-12.467-6.169-16.173-11.923-2.955-4.497-4.665-9.875-4.665-15.629v-211.03c0-13.089 8.786-24.13 20.838-27.513 12.051 3.383 20.851 14.424 20.851 27.513z" fill="#3e4e60"/><path d="m446.321 126.531v211.03c0 5.754-1.71 11.132-4.665 15.629-3.707 5.754-9.421 10.043-16.173 11.923-6.752-1.879-12.467-6.169-16.173-11.923-2.968-4.497-4.678-9.875-4.678-15.629v-211.03c0-13.128 8.838-24.169 20.852-27.513 11.999 3.344 20.837 14.385 20.837 27.513z" fill="#3f6c8e"/><path d="m446.321 307.21v30.351c0 5.754-1.71 11.132-4.665 15.629-3.707 5.754-9.421 10.043-16.173 11.923-2.462.713-5.093 1.089-7.75 1.089h-323.465c-2.709 0-5.287-.376-7.75-1.089-6.752-1.879-12.467-6.169-16.173-11.923-2.955-4.497-4.665-9.875-4.665-15.629v-30.351z" fill="#3e4e60"/><path d="m107.37 307.21v30.351c0 5.754-1.711 11.132-4.678 15.629-3.706 5.754-9.421 10.043-16.173 11.923-6.752-1.879-12.467-6.169-16.173-11.923-2.955-4.497-4.665-9.875-4.665-15.629v-30.351z" fill="#334353"/><path d="m446.321 307.21v30.351c0 5.754-1.71 11.132-4.665 15.629-3.707 5.754-9.421 10.043-16.173 11.923-6.752-1.879-12.467-6.169-16.173-11.923-2.968-4.497-4.678-9.875-4.678-15.629v-30.351z" fill="#3f5d77"/><path d="m278.767 336.705h-45.534c-5.866 0-10.622 4.755-10.622 10.622 0 5.866 4.755 10.622 10.622 10.622h45.534c5.866 0 10.622-4.755 10.622-10.622 0-5.866-4.756-10.622-10.622-10.622z" fill="#334353"/><path d="m340.881 118.788h-135.473c-5.756 0-10.423-4.666-10.423-10.423 0-5.756 4.666-10.423 10.423-10.423h135.473c5.756 0 10.423 4.666 10.423 10.423 0 5.756-4.666 10.423-10.423 10.423z" fill="#3f6c8e"/><g><path d="m407.423 328.995h-302.846c-9.97 0-18.053-8.083-18.053-18.053v-174.102c0-9.97 8.083-18.053 18.053-18.053h302.845c9.97 0 18.053 8.083 18.053 18.053v174.102c0 9.97-8.082 18.053-18.052 18.053z" fill="#a2c2eb"/></g></g><g><g><g><g><path d="m386.25 152.336v139.12c0 9.72-7.88 17.61-17.61 17.61h-225.28c-9.72 0-17.61-7.89-17.61-17.61v-139.12c0-3.18.84-6.17 2.33-8.74 3.02-5.31 8.74-8.88 15.28-8.88h225.28c9.73 0 17.61 7.89 17.61 17.62z" fill="#fff"/></g><path d="m386.25 152.336h-260.5c0-3.18.84-6.17 2.33-8.74 3.02-5.31 8.74-8.88 15.28-8.88h225.28c9.73 0 17.61 7.89 17.61 17.62z" fill="#6c53a2"/></g><circle cx="364.916" cy="143.526" fill="#fa4654" r="6.851"/><circle cx="344.804" cy="143.526" fill="#15be79" r="6.851"/></g><g><path d="m349.656 276.025v-58.725c0-6.202-5.028-11.229-11.229-11.229h-58.725c-6.202 0-11.229 5.028-11.229 11.229v58.725c0 6.202 5.028 11.229 11.229 11.229h58.725c6.201 0 11.229-5.027 11.229-11.229z" fill="#e9465e"/><circle cx="253.954" cy="211.936" fill="#f9c744" r="49.408"/><path d="m224.765 193.113c9.343-2.503 17.892 6.046 15.388 15.388l-8.99 33.55-8.99 33.55c-2.503 9.343-14.182 12.472-21.021 5.633l-24.561-24.56-24.56-24.561c-6.839-6.839-3.71-18.518 5.633-21.021l33.55-8.99z" fill="#22bce0"/><path d="m227.973 253.959 3.19-11.907 8.99-33.55c2.503-9.343-6.046-17.892-15.388-15.388l-18.21 4.879c-1.299 4.424-2.009 9.1-2.009 13.943.001 17.753 9.369 33.313 23.427 42.023z" fill="#9acdae"/><path d="m268.471 259.172c20.202-6.201 34.891-25.002 34.891-47.236 0-1.986-.131-3.941-.358-5.866h-23.303c-6.202 0-11.229 5.028-11.229 11.229v41.873z" fill="#fb8406"/><circle cx="265.104" cy="186.595" fill="#fad98f" r="15.114"/><path d="m310.756 221.9c0-4.762 3.86-8.622 8.622-8.622h14.447c4.762 0 8.622 3.86 8.622 8.622 0 4.762-3.86 8.622-8.622 8.622h-14.447c-4.761.001-8.622-3.86-8.622-8.622z" fill="#ea7589"/><path d="m160.656 219.318c3.367-3.367 8.827-3.367 12.194 0l10.215 10.215c3.367 3.367 3.367 8.827 0 12.194-3.367 3.367-8.827 3.367-12.194 0l-10.215-10.215c-3.367-3.367-3.367-8.827 0-12.194z" fill="#83d5ef"/></g></g></g></g></svg>