<svg id="_x35_0" enable-background="new 0 0 512 512" height="512" viewBox="0 0 512 512" width="512" xmlns="http://www.w3.org/2000/svg"><g><g><circle cx="256" cy="256" fill="#fa4654" r="256"/><circle cx="256" cy="256" fill="#fb626e" r="204.603"/></g><g><g><g><path d="m327.579 413.142c-34.022 46.483-59.5 67.267-83.205 67.267-40.699-.881-51.235-50.563-61.424-93.904l12.681-2.91 24.598-5.645c4.103 17.84 8.555 36.363 14.061 49.508 1.656 3.945 3.175 6.842 4.491 8.964 2.557 4.123 7.933 5.469 12.12 3.019 7.697-4.504 22.161-16.583 45.799-48.89l17.098 12.508z" fill="#53b976"/><path d="m313.796 403.057c-27.438 42.368-48.384 61.413-67.916 61.413-31.576-.8-42.066-41.185-50.25-80.875l24.598-5.645c4.103 17.84 8.555 36.363 14.061 49.508 1.656 3.945 3.175 6.842 4.491 8.964 2.557 4.123 7.933 5.469 12.12 3.019 7.697-4.504 22.161-16.583 45.799-48.89z" fill="#78c795"/></g><g><path d="m224.633 381.809v-33.523c0-4.706-3.802-8.508-8.508-8.508h-4.509c-4.706 0-8.508 3.802-8.508 8.508v11.986l-26.186-26.186c-2.202-2.191-5.761-2.191-7.952 0l-2.11 2.11c-2.191 2.202-2.191 5.761 0 7.952l-5.668-5.668c-2.202-2.191-5.761-2.191-7.952 0l-2.11 2.11c-2.191 2.191-2.191 5.761 0 7.952l6.271 6.271c-2.191-2.191-5.749-2.191-7.952 0l-2.11 2.11c-2.191 2.202-2.191 5.761 0 7.952l11.568 11.568c-2.191-2.191-5.749-2.191-7.952 0l-2.11 2.11c-2.191 2.191-2.191 5.75 0 7.952l25.49 25.49c3.837 3.837 8.868 5.75 13.887 5.75.22 0 .452 0 .672-.012 4.799-.162 9.552-2.075 13.203-5.738l17.167-17.167c3.443-3.443 5.39-8.126 5.39-13.006z" fill="#f5b890"/><g><g><path d="m188.869 361.942-.428-.428-19.472-19.472c-2.196-2.195-2.196-5.755 0-7.951l-2.109 2.109c-2.195 2.196-2.196 5.755 0 7.951l22.009 22.009c.001 0 1.165-3.053 0-4.218z" fill="#d48d77"/></g><g><path d="m169.354 382.666-.428-.428-19.472-19.472c-2.195-2.195-2.195-5.755 0-7.951l-2.109 2.109c-2.195 2.195-2.195 5.755 0 7.951l22.009 22.009c0 .001 1.165-3.053 0-4.218z" fill="#d48d77"/></g><g><path d="m176.616 369.809-.428-.428-22.95-22.95c-2.195-2.196-2.195-5.755 0-7.951l-2.109 2.109c-2.196 2.195-2.196 5.755 0 7.951l25.487 25.487s1.165-3.054 0-4.218z" fill="#d48d77"/></g><g fill="#d48d77"><path d="m203.104 348.283v11.992l4.55 4.55v-16.576c0-4.681 3.794-8.475 8.475-8.475h-4.515c-4.7-.001-8.51 3.809-8.51 8.509z"/><path d="m202.061 411.994c-3.554 3.566-8.153 5.459-12.822 5.708-.054.003-.109.011-.163.013-.073.003-.145.015-.218.017l-.005-.017c-5.245.181-10.548-1.721-14.552-5.725l-25.487-25.487c-2.196-2.196-2.196-5.755 0-7.951l2.109-2.109c-2.195 2.195-2.195 5.755 0 7.951l22.95 22.95c.035.037.071.074.106.111 4.123 4.288 12.051 5.932 17.812 3.794 3.149-1.169 6.615-1.14 9.6.4z"/></g></g></g></g><g><path d="m421.89 423.59v27.39c-10.43 8.89-21.59 16.95-33.38 24.1-31.74 19.24-68.01 31.78-106.83 35.65v-87.14c0-28.82 23.34-52.19 52.17-52.19h35.87c28.82 0 52.17 23.37 52.17 52.19z" fill="#53b976"/><path d="m388.51 423.59v51.49c-31.74 19.24-68.01 31.78-106.83 35.65v-87.14c0-28.82 23.34-52.19 52.17-52.19h2.47c28.83 0 52.19 23.37 52.19 52.19z" fill="#78c795"/></g><g><path d="m328.615 349.492v25.162c0 12.797 10.379 23.16 23.176 23.16 4.292 0 8.312-1.169 11.756-3.203 6.823-4.02 11.404-11.452 11.404-19.957v-25.162z" fill="#f5b890"/><path d="m374.951 349.492v25.162c0 8.505-4.581 15.936-11.404 19.957v-26.892c-8.056 3.363-16.913 5.221-26.203 5.221-2.963 0-5.878-.192-8.729-.544v-22.904z" fill="#d48d77"/></g><g><g><path d="m269.906 199.337v94.037c0 18.69 7.571 35.614 19.819 47.862 8.844 8.828 20.106 15.222 32.703 18.117 4.883 1.113 9.957 1.702 15.175 1.702 37.379 0 67.696-30.301 67.696-67.681v-94.037c0-20.487-16.622-37.093-37.109-37.093h-61.191c-3.594 0-7.062.509-10.355 1.479-15.444 4.469-26.738 18.721-26.738 35.614z" fill="#d48d77"/><path d="m269.906 199.337v94.037c0 18.69 7.571 35.614 19.819 47.862 8.844 8.828 20.106 15.222 32.703 18.117 30.094-6.887 52.522-33.817 52.522-65.979v-35.98c0-46.812-33.785-85.718-78.306-93.671-15.444 4.469-26.738 18.721-26.738 35.614z" fill="#f5b890"/><g fill="#eea47d"><path d="m318.46 261.651h13.8c5.668 0 10.263 4.595 10.263 10.263 0 5.668-4.595 10.263-10.263 10.263h-13.8c-5.668 0-10.263-4.595-10.263-10.263 0-5.668 4.595-10.263 10.263-10.263z"/><path d="m320.287 162.241h17.313v106.376h-17.313z"/></g><g fill="#334353"><path d="m361.895 227.431c5.18 0 9.379 4.199 9.379 9.379v16.37c0 5.18-4.199 9.379-9.379 9.379-5.18 0-9.379-4.199-9.379-9.379v-16.37c0-5.18 4.199-9.379 9.379-9.379z"/><path d="m307.839 227.431c5.18 0 9.379 4.199 9.379 9.379v16.37c0 5.18-4.199 9.379-9.379 9.379-5.18 0-9.379-4.199-9.379-9.379v-16.37c.001-5.18 4.199-9.379 9.379-9.379z"/></g><g><path d="m335.15 320.001c16.248 0 29.466-13.218 29.466-29.465 0-3.075-2.492-5.567-5.567-5.567s-5.567 2.492-5.567 5.567c0 10.108-8.223 18.331-18.332 18.331-3.075 0-5.567 2.492-5.567 5.567s2.492 5.567 5.567 5.567z" fill="#c17e62"/></g></g><g><path d="m260.523 206.066c0-23.231 9.424-44.271 24.646-59.493 10.859-10.859 24.686-18.768 40.147-22.414 6.216-1.454 12.692-2.231 19.346-2.231 46.483 0 84.139 37.656 84.139 84.139l-.15 92.048c-.039 23.758-19.309 42.996-43.066 42.996 12.182-12.238 19.715-29.107 19.715-47.737v-77.944h-66.153c-15.922 0-28.829-12.907-28.829-28.829 0 15.922-12.907 28.829-28.829 28.829h-11.581v77.944c0 18.628 7.524 35.498 19.699 47.737-16.062 0-29.084-13.021-29.084-29.084z" fill="#f9c744"/><path d="m260.523 206.066c0-23.231 9.424-44.271 24.646-59.493 10.859-10.859 24.686-18.768 40.147-22.414 37.138 8.747 64.793 42.079 64.793 81.907v9.364h-50.961c-15.922 0-28.829-12.907-28.829-28.829 0 15.922-12.907 28.829-28.829 28.829h-11.581v77.944c0 18.628 7.524 35.498 19.699 47.737-16.062 0-29.084-13.021-29.084-29.084z" fill="#fad98f"/></g><g><g><path d="m416.702 274.775h-11.41v-35.704h11.41c9.859 0 17.852 7.993 17.852 17.852 0 9.86-7.992 17.852-17.852 17.852z" fill="#d48d77"/><path d="m417.278 264.584h-11.986v-15.321h11.986c4.231 0 7.66 3.43 7.66 7.66 0 4.231-3.429 7.661-7.66 7.661z" fill="#c17e62"/></g><g><path d="m264.911 239.071h4.997v35.704h-4.997c-9.859 0-17.852-7.993-17.852-17.852.001-9.859 7.993-17.852 17.852-17.852z" fill="#d48d77"/><path d="m264.336 249.263h5.573v15.321h-5.573c-4.231 0-7.66-3.43-7.66-7.66-.001-4.231 3.429-7.661 7.66-7.661z" fill="#c17e62"/></g></g></g></g><g><g><path d="m204.102 307.47-23.886 89.143c-.226.843-.272 1.693-.154 2.514.335 2.452 2.104 4.589 4.648 5.27 3.387.908 6.872-1.109 7.779-4.495l23.886-89.143z" fill="#334353"/><path d="m204.102 307.47-23.886 89.143c-.226.843-.272 1.693-.154 2.514.344.17.713.305 1.1.409 3.387.908 6.875-1.102 7.784-4.494l22.908-85.495z" fill="#3e4e60"/><path d="m194.727 357.962c2.141.574 4.341-.697 4.915-2.838l7.084-26.439c.574-2.141-.697-4.341-2.838-4.915-2.141-.574-4.341.697-4.915 2.838l-7.084 26.439c-.573 2.141.697 4.342 2.838 4.915z" fill="#3f5d77"/></g><g><path d="m209.338 272.558-9.088 33.917c-.031.116-.056.229-.082.347-.739 3.474 1.366 6.956 4.84 7.887l6.968 1.867c3.585.961 7.272-1.167 8.232-4.753l9.088-33.917c.956-3.566-1.143-7.229-4.69-8.215l-7.03-1.884c-3.591-.963-7.277 1.165-8.238 4.751z" fill="#2e3140"/><path d="m209.338 272.558-9.088 33.917c-.031.116-.056.229-.082.347 1.089.936 2.4 1.645 3.878 2.041l.887.238c5.267 1.411 10.679-1.714 12.09-6.98l7.459-27.836c.417-1.555.436-3.119.125-4.594l-7.03-1.884c-3.592-.963-7.278 1.165-8.239 4.751z" fill="#334353"/><path d="m207.032 301.121c2.756.738 5.588-.897 6.326-3.652l4.178-15.593c.738-2.756-.897-5.588-3.652-6.326-2.756-.738-5.588.897-6.326 3.652l-4.178 15.593c-.739 2.756.897 5.588 3.652 6.326z" fill="#3e4e60"/></g><g><path d="m197.836 280.852 8.658 2.32 2.094-7.815-8.658-2.32c-2.158-.578-4.377.702-4.955 2.861-.578 2.157.703 4.376 2.861 4.954z" fill="#2e3140"/><g><g><path d="m173.914 314.025c-.417 1.556.507 3.157 2.063 3.574 7.847 2.103 11.963-3.948 14.374-8.685.855-1.68 1.694-3.618 2.539-5.845 2.327-6.113 4.701-14.388 7.651-25.397.417-1.556-.507-3.157-2.063-3.574s-3.157.507-3.574 2.063c-1.435 5.355-2.727 10.042-3.939 14.115-2.091 7.058-3.925 12.282-5.813 15.988-3.209 6.294-5.545 6.266-7.665 5.698-1.555-.417-3.156.507-3.573 2.063z" fill="#2e3140"/></g><path d="m173.914 314.025c-.417 1.556.507 3.157 2.063 3.574 4.346 1.165 7.55-.17 9.948-2.403 1.937-1.795 3.351-4.165 4.426-6.282.855-1.68 1.694-3.618 2.539-5.845.338-4.441-.36-8.803-1.925-12.793-2.091 7.058-3.925 12.282-5.813 15.988-.242.473-.48.911-.709 1.315-2.848 4.97-4.995 4.909-6.956 4.383-1.555-.417-3.156.507-3.573 2.063z" fill="#334353"/><path d="m173.914 314.025c-.417 1.556.507 3.157 2.063 3.574 4.346 1.165 7.55-.17 9.948-2.403-.17-2.613-.673-5.177-1.481-7.617-2.848 4.97-4.995 4.909-6.956 4.383-1.556-.417-3.157.507-3.574 2.063z" fill="#3e4e60"/></g></g></g><g><g id="Speech-bubble_2_"><path d="m211.74 247.079c-3.794 0-7.512-1.853-9.745-5.264l-37.518-57.339c-3.517-5.376-2.011-12.585 3.365-16.103 5.375-3.518 12.584-2.011 16.102 3.365l37.518 57.339c3.517 5.376 2.011 12.585-3.365 16.103-1.964 1.284-4.174 1.899-6.357 1.899z" fill="#ebd9ea"/><path d="m246.22 86.23v72.65c0 10.25-3.47 19.68-9.3 27.19-8.12 10.45-20.8 17.17-35.05 17.17h-112.35c-14.25 0-26.93-6.72-35.04-17.17-5.83-7.51-9.31-16.94-9.31-27.19v-48.13c5.74-8.31 11.95-16.26 18.61-23.82 15.15-17.22 32.59-32.4 51.84-45.04h86.25c14.25 0 26.93 6.72 35.05 17.16 5.83 7.51 9.3 16.94 9.3 27.18z" fill="#ebd9ea"/><path d="m246.219 86.234v72.648c0 10.248-3.471 19.674-9.301 27.189-5.838-7.516-9.309-16.941-9.309-27.189v-72.648c0-10.248 3.471-19.674 9.309-27.181 5.83 7.508 9.301 16.933 9.301 27.181z" fill="#fff"/><path d="m63.78 86.93v71.95c0 10.25-3.47 19.68-9.3 27.19-5.83-7.51-9.31-16.94-9.31-27.19v-48.13c5.74-8.31 11.95-16.26 18.61-23.82z" fill="#c1b7d3"/></g><g id="Lightbulb_3_"><g><path d="m178.661 94.455c0 8.636-4.558 15.54-8.772 22.341-.399.647-.83 1.477-1.285 2.45-1.038 2.211-2.171 5.124-3.241 8.062-2.243 6.186-4.174 12.468-4.174 12.468h-30.977s-5.475-17.751-8.7-22.979c-.67-1.078-1.349-2.155-2.011-3.249-3.536-5.787-6.769-11.829-6.769-19.092 0-7.319 2.387-14.088 6.433-19.555 5.994-8.133 15.652-13.409 26.531-13.409 2.937 0 5.779.383 8.485 1.109 5.244 1.389 9.969 4.039 13.84 7.599 6.545 6.024 10.64 14.661 10.64 24.255z" fill="#daab42"/><path d="m125.59 94.455c0 7.112-2.251 13.705-6.09 19.092-3.536-5.787-6.769-11.829-6.769-19.092 0-7.319 2.387-14.088 6.433-19.555 4.04 5.467 6.426 12.235 6.426 19.555z" fill="#c4983d"/><path d="m178.661 94.455c0 8.636-4.558 15.54-8.772 22.341-.399.647-.83 1.477-1.285 2.45-1.038 2.211-2.171 5.124-3.241 8.062-.886.072-1.788.112-2.69.112-18.206 0-32.965-14.758-32.965-32.965 0-15.269 10.384-28.112 24.472-31.855 5.244 1.389 9.969 4.039 13.84 7.599 6.546 6.025 10.641 14.662 10.641 24.256z" fill="#f9c744"/><path d="m178.661 94.455c0 8.636-4.558 15.54-8.772 22.341-.399.647-.83 1.477-1.285 2.45-5.388-4.733-9.227-11.198-10.632-18.526-.391-2.027-.599-4.127-.599-6.266 0-7.511 2.514-14.439 6.745-19.978 1.173-1.54 2.482-2.969 3.903-4.278 6.545 6.026 10.64 14.663 10.64 24.257z" fill="#f8d07a"/><circle cx="159.936" cy="87.342" fill="#fbd9a3" r="13.526"/><path d="m178.661 94.455c0 8.636-4.558 15.54-8.772 22.341-.399.647-.83 1.477-1.285 2.45-1.038 2.211-2.171 5.124-3.241 8.062-2.243 6.186-4.174 12.468-4.174 12.468h-30.977s-5.475-17.751-8.7-22.979c-.67-1.078-1.349-2.155-2.011-3.249-3.536-5.787-6.769-11.829-6.769-19.092 0-7.319 2.387-14.088 6.433-19.555 5.994-8.133 15.652-13.409 26.531-13.409 2.937 0 5.779.383 8.485 1.109 5.244 1.389 9.969 4.039 13.84 7.599 6.545 6.024 10.64 14.661 10.64 24.255z" fill="none"/></g><g><path d="m157.374 167.272v4.685c0 4.861-2.977 9.035-7.2 10.791-1.381.567-2.889.886-4.478.886-6.441 0-11.669-5.228-11.669-11.677v-4.685z" fill="#2e3140"/><path d="m157.374 167.272v4.685c0 4.861-2.977 9.035-7.2 10.791-4.23-1.756-7.208-5.922-7.208-10.791v-4.685z" fill="#3e4e60"/><path d="m157.374 167.272v4.685c0 4.861-2.977 9.035-7.2 10.791-1.381.567-2.889.886-4.478.886-6.441 0-11.669-5.228-11.669-11.677v-4.685z" fill="none"/></g><g><path d="m140.526 116.936h10.348v22.84h-10.348z" fill="#bf5e39"/><path d="m145.7 116.936h5.174v22.84h-5.174z" fill="#dd5e26"/></g><g><path d="m160.99 110.49c0 .639-.088 1.253-.263 1.828-.79 2.674-3.265 4.621-6.186 4.621h-17.68c-1.78 0-3.392-.726-4.558-1.892-1.165-1.165-1.892-2.778-1.892-4.558 0-3.56 2.889-6.449 6.449-6.449h17.68c1.78 0 3.392.726 4.558 1.892 1.173 1.166 1.892 2.778 1.892 4.558z" fill="#bf5e39"/><path d="m160.99 110.49c0 .639-.088 1.253-.263 1.828h-16.747c-1.78 0-3.392-.718-4.558-1.892-1.165-1.165-1.892-2.778-1.892-4.558 0-.639.096-1.253.263-1.828h16.746c1.78 0 3.392.726 4.558 1.892 1.174 1.166 1.893 2.778 1.893 4.558z" fill="#dd5e26"/><path d="m159.098 105.933c1.173 1.165 1.892 2.778 1.892 4.558 0 .639-.088 1.253-.263 1.828h-5.994c-1.78 0-3.392-.718-4.558-1.892-1.165-1.165-1.884-2.778-1.884-4.558 0-.639.088-1.253.263-1.828h5.986c1.78 0 3.392.726 4.558 1.892z" fill="#ea792e"/><path d="m160.99 110.49c0 .639-.088 1.253-.263 1.828-.79 2.674-3.265 4.621-6.186 4.621h-17.68c-1.78 0-3.392-.726-4.558-1.892-1.165-1.165-1.892-2.778-1.892-4.558 0-3.56 2.889-6.449 6.449-6.449h17.68c1.78 0 3.392.726 4.558 1.892 1.173 1.166 1.892 2.778 1.892 4.558z" fill="none"/></g><g><path d="m170.224 148.403c0 .152-.008.295-.016.431-.295 4.374-5.084 5.204-8.604 8.189-.718.615-.615 3.712-.615 3.712 0 8.445-6.848 15.293-15.293 15.293-5.084 0-9.586-2.482-12.364-6.306-.559-.766-1.046-1.588-1.461-2.458-.575-1.213-.99-2.522-1.229-3.887-.152-.854-.232-1.74-.232-2.642 0 0 .104-3.097-.615-3.712-3.632-3.081-8.62-3.863-8.62-8.62 0-4.765 3.855-8.628 8.62-8.628h31.807c4.767 0 8.622 3.863 8.622 8.628z" fill="#c1b7d3"/><path d="m170.224 148.403c-.001.148-.006.292-.016.431-.295 4.374-5.084 5.204-8.604 8.189-.718.615-.615 3.712-.615 3.712 0 8.445-6.848 15.293-15.293 15.293-5.084 0-9.586-2.482-12.364-6.306-.559-.766-1.046-1.588-1.461-2.458-.575-1.213-.99-2.522-1.229-3.887-.152-.854-.232-1.74-.232-2.642 0 0 .104-3.097-.615-3.712-3.632-3.081-8.62-3.863-8.62-8.62z" fill="#aea7b9"/><path d="m150.877 148.403s-2.562 18.438-19.005 18.861c-.934-1.979-1.461-4.19-1.461-6.529 0 0 .104-3.097-.615-3.712-3.632-3.081-8.62-3.863-8.62-8.62z" fill="#9f90ae"/><path d="m143.43 144.085c0 2.387-1.932 4.318-4.31 4.318h-17.943c0-4.765 3.855-8.628 8.62-8.628h9.323c2.378 0 4.31 1.932 4.31 4.31z" fill="#aea7b9"/><path d="m155.059 166.554c0 1.748-1.421 3.169-3.177 3.169h-18.55c-.559-.766-1.046-1.588-1.461-2.458-.575-1.213-.99-2.522-1.229-3.887h21.239c1.757-.001 3.178 1.42 3.178 3.176z" fill="#c1b7d3"/><g fill="#ebd9ea"><path d="m148.723 169.724h-2.024c-1.752 0-3.172-1.42-3.172-3.172 0-1.752 1.42-3.172 3.172-3.172h2.024c1.752 0 3.172 1.42 3.172 3.172 0 1.752-1.42 3.172-3.172 3.172z"/><path d="m160.002 146.119h-9.628c-1.752 0-3.172-1.42-3.172-3.172 0-1.752 1.42-3.172 3.172-3.172h9.628c1.752 0 3.172 1.42 3.172 3.172 0 1.752-1.42 3.172-3.172 3.172z"/></g></g></g></g></g></svg>